<?xml version="1.0" standalone="no"?>
<!DOCTYPE svg PUBLIC "-//W3C//DTD SVG 20010904//EN"
 "http://www.w3.org/TR/2001/REC-SVG-20010904/DTD/svg10.dtd">
<svg version="1.0" xmlns="http://www.w3.org/2000/svg"
 width="3000.000000pt" height="3000.000000pt" viewBox="0 0 3000.000000 3000.000000"
 preserveAspectRatio="xMidYMid meet">
<metadata>
Created by potrace 1.11, written by Peter Selinger 2001-2013
</metadata>
<g transform="translate(0.000000,3000.000000) scale(0.100000,-0.100000)"
fill="#000000" stroke="none">
<path d="M18990 29841 c-275 -273 -571 -500 -1070 -823 -643 -416 -714 -473
-1181 -953 -180 -185 -419 -414 -644 -615 -27 -25 -52 -47 -55 -50 -11 -11
-120 -109 -194 -175 -44 -38 -87 -77 -96 -85 -9 -8 -34 -30 -55 -49 -22 -19
-71 -62 -110 -96 -101 -89 -379 -331 -455 -395 -36 -30 -67 -57 -70 -61 -3 -3
-113 -97 -245 -208 -132 -112 -251 -213 -265 -225 -14 -12 -104 -87 -200 -168
-250 -209 -396 -356 -521 -523 -197 -266 -322 -564 -359 -859 -11 -88 -15
-310 -6 -356 2 -14 7 -47 11 -75 12 -98 51 -246 90 -340 25 -58 27 -35 4 31
-28 78 -35 284 -14 395 51 263 180 550 388 864 152 229 167 250 219 310 128
147 398 406 657 629 332 287 715 597 1156 934 160 122 319 249 355 281 58 52
283 246 335 289 92 76 135 110 240 189 700 528 1223 672 1487 410 60 -61 87
-112 150 -291 106 -301 139 -492 144 -816 4 -303 -17 -473 -92 -750 -80 -297
-238 -650 -388 -865 l-21 -29 60 33 c210 118 350 250 409 383 l23 52 6 -34 c3
-19 4 -105 2 -190 -4 -176 -31 -346 -95 -603 -35 -141 -140 -478 -175 -561
l-14 -33 -68 15 c-121 25 -326 2 -458 -53 -45 -20 -39 -26 45 -45 173 -39 364
-117 485 -196 125 -81 192 -155 222 -245 l19 -57 34 67 c112 214 317 382 534
437 63 16 67 18 50 31 -62 45 -214 54 -328 18 -27 -8 -51 -14 -53 -12 -6 7 19
121 44 195 40 123 144 330 219 437 34 50 39 59 23 49 -8 -4 -67 -52 -131 -106
-108 -90 -146 -117 -121 -85 46 57 124 417 148 680 11 120 7 120 92 5 97 -130
206 -238 274 -272 87 -43 132 -32 77 20 -54 51 -149 185 -195 279 -116 230
-203 570 -238 930 -3 33 -7 78 -10 100 -23 232 -33 680 -20 960 12 285 16 354
20 390 2 22 7 74 10 115 3 41 10 122 15 180 6 58 13 132 16 165 3 33 7 71 9
85 2 14 6 48 10 75 6 56 8 75 24 190 11 76 10 83 -13 130 -30 63 -73 182 -79
221 -3 16 -10 49 -16 74 -37 160 -30 437 15 648 9 41 14 74 12 76 -1 1 -37
-32 -78 -73z"/>
<path d="M22000 29307 c-190 -78 -384 -196 -545 -335 -89 -77 -244 -237 -315
-325 -41 -51 -91 -107 -111 -123 -138 -110 -285 -230 -289 -234 -11 -13 -588
-470 -740 -586 -241 -185 -281 -215 -416 -311 -145 -104 -260 -178 -299 -193
-30 -12 -34 -47 -30 -255 5 -244 34 -382 105 -499 35 -57 57 -74 46 -33 -3 12
-9 65 -13 117 -11 183 29 304 134 396 156 136 321 254 493 350 91 51 149 80
306 151 37 17 142 100 248 196 85 77 181 191 208 247 9 19 32 69 52 111 40 85
130 184 228 250 91 62 86 65 87 -58 0 -59 3 -130 6 -158 27 -237 55 -360 123
-546 30 -80 54 -168 61 -217 13 -89 13 -342 0 -439 -4 -32 -10 -80 -13 -108
-9 -84 -69 -395 -87 -452 l-10 -33 -42 21 c-73 37 -163 106 -221 170 -31 35
-56 57 -56 50 0 -6 11 -47 25 -89 48 -152 147 -540 185 -727 29 -140 44 -255
34 -255 -2 0 -26 11 -52 24 -72 36 -147 58 -188 54 l-37 -3 49 -54 c89 -97
271 -331 350 -448 86 -129 174 -294 193 -363 7 -25 16 -54 20 -65 4 -10 7 201
7 470 -1 660 16 1172 49 1515 30 301 39 371 71 550 30 165 71 292 131 404 77
143 134 320 163 506 6 41 13 86 16 100 26 162 25 594 -2 852 -12 115 38 234
144 349 35 38 58 69 50 69 -7 -1 -60 -20 -118 -43z"/>
<path d="M12010 29057 c-3 -3 -45 -7 -95 -10 -80 -5 -152 -14 -265 -32 -19 -3
-48 -7 -65 -10 -85 -11 -330 -67 -340 -77 -2 -2 126 -3 283 -4 259 -1 435 -7
532 -19 19 -2 64 -7 100 -10 117 -11 313 -45 408 -70 152 -40 218 -72 397
-190 208 -137 288 -183 514 -294 417 -205 769 -314 1017 -314 l112 0 -8 -27
c-30 -105 -145 -161 -385 -186 -96 -10 -439 -12 -487 -4 -24 5 -44 7 -46 5 -8
-8 152 -77 233 -100 161 -46 429 -89 690 -110 39 -3 90 -8 115 -10 58 -5 330
-16 438 -18 45 -1 82 -3 82 -5 0 -3 -22 -34 -49 -71 -140 -190 -268 -413 -315
-547 -26 -74 -47 -174 -37 -174 3 1 31 43 60 95 253 439 703 772 1189 880 79
18 108 35 58 35 -14 0 -46 4 -73 10 -26 5 -118 24 -203 41 -155 31 -487 112
-590 144 -211 65 -385 125 -510 175 -170 68 -280 118 -280 126 0 3 7 4 15 0
59 -22 476 -27 615 -7 145 22 340 76 354 99 3 4 -66 16 -152 26 -137 16 -317
41 -557 77 -38 6 -79 12 -90 13 -11 2 -33 6 -50 9 -16 3 -48 9 -70 12 -22 3
-65 10 -95 15 -30 5 -71 12 -90 15 -19 3 -146 28 -283 55 -456 92 -791 187
-1062 303 -260 112 -437 146 -780 153 -127 3 -233 3 -235 1z"/>
<path d="M11775 28490 c-113 -11 -197 -20 -220 -25 -11 -2 -42 -7 -70 -10
-193 -24 -765 -139 -971 -195 -39 -10 -81 -21 -95 -24 -48 -10 -90 -25 -122
-45 -243 -150 -757 -303 -1232 -366 -27 -3 -63 -8 -80 -10 -266 -36 -516 -49
-900 -49 -315 0 -686 14 -752 29 -13 3 -23 1 -23 -4 0 -12 177 -71 334 -111
188 -48 510 -108 681 -126 22 -2 78 -9 125 -14 47 -5 117 -12 155 -15 39 -3
84 -8 100 -10 207 -27 1028 -26 1405 0 l75 6 -40 -26 c-60 -40 -446 -227 -565
-275 -176 -72 -201 -81 -329 -126 -192 -68 -446 -141 -626 -180 -38 -9 -79
-17 -90 -20 -62 -13 -307 -53 -370 -59 -33 -4 -76 -8 -95 -11 -84 -10 -276
-18 -405 -17 -589 5 -1097 5 -1185 0 -246 -15 -455 -42 -455 -59 0 -4 135 -9
300 -12 165 -2 311 -7 325 -9 14 -3 50 -8 80 -11 101 -11 247 -45 278 -65 29
-18 -232 -185 -409 -262 -252 -109 -611 -200 -883 -224 l-70 -6 50 41 c166
139 426 275 614 321 33 8 47 15 34 17 -12 2 -96 -13 -188 -33 -719 -155 -1198
-414 -1301 -705 -8 -22 -13 -40 -11 -40 1 0 24 11 52 24 57 27 187 70 259 87
28 6 59 13 70 15 51 12 245 15 300 5 77 -14 82 -20 67 -77 -54 -202 -492 -556
-1150 -932 -74 -42 -129 -78 -124 -80 23 -7 599 218 877 343 525 236 860 450
1010 648 16 21 63 64 105 97 278 214 755 420 1290 556 156 40 425 96 520 108
195 26 346 45 400 50 294 27 711 27 1005 1 106 -9 335 -41 368 -51 9 -3 17 -1
17 5 0 6 -5 11 -11 11 -13 0 -93 63 -122 95 -10 11 -36 46 -58 79 l-41 58 78
-6 c44 -4 95 -9 114 -11 19 -2 64 -7 100 -10 36 -3 85 -8 110 -10 142 -14 263
-25 325 -30 39 -3 90 -8 115 -10 56 -6 238 -22 345 -30 44 -4 100 -8 124 -10
24 -3 75 -7 115 -10 39 -3 100 -7 136 -10 108 -9 180 -14 290 -20 58 -4 121
-8 140 -10 74 -8 493 -15 486 -8 -3 4 -15 8 -26 10 -86 13 -287 103 -405 181
-61 41 -230 190 -223 198 2 1 84 -25 183 -57 276 -92 717 -204 880 -225 17 -2
48 -6 70 -10 47 -8 50 -9 140 -18 39 -4 81 -9 93 -11 13 -2 55 -5 93 -6 38 -1
69 -6 69 -10 0 -31 -235 -259 -380 -368 -327 -246 -738 -428 -1147 -507 -48
-9 -91 -20 -96 -23 -14 -13 426 0 503 14 8 1 44 6 80 10 36 4 72 8 80 10 173
29 342 73 446 116 40 17 147 75 238 130 312 187 548 293 756 340 128 28 122
32 88 -63 -115 -323 -134 -674 -48 -883 l13 -30 9 40 c50 226 191 604 323 865
86 170 81 162 158 286 198 319 427 562 692 737 50 32 81 56 70 53 -79 -22
-519 -50 -775 -50 -145 1 -431 12 -468 18 -9 2 -53 7 -97 11 -99 9 -346 48
-462 74 -238 54 -480 138 -674 237 -105 54 -311 184 -324 204 -6 10 89 7 180
-6 59 -9 652 -12 745 -4 254 21 437 58 590 117 38 15 79 35 92 45 l23 18 -30
1 c-35 1 -34 0 -223 39 -445 92 -818 210 -990 314 -52 31 -84 43 -167 62 -44
10 -367 12 -460 4z"/>
<path d="M17985 28063 c-69 -7 -186 -37 -270 -70 -148 -57 -369 -174 -503
-269 l-37 -26 30 6 c17 3 61 9 99 13 l68 6 -7 -24 c-27 -90 -124 -247 -248
-402 -95 -120 -472 -501 -487 -492 -13 8 -13 96 1 171 14 78 59 193 109 278
22 38 39 71 36 73 -2 2 -30 -14 -62 -35 -33 -21 -111 -73 -174 -114 -151 -100
-320 -215 -450 -308 -118 -84 -422 -310 -430 -319 -3 -3 -21 -18 -42 -33 -20
-15 -42 -33 -50 -40 -7 -7 -58 -49 -113 -93 -118 -94 -120 -96 -294 -251 -410
-366 -705 -712 -855 -1003 -55 -106 -72 -151 -95 -244 l-17 -69 -52 57 c-33
36 -52 65 -52 81 0 43 -16 17 -19 -30 -1 -24 -3 -53 -5 -63 -2 -11 -7 -57 -11
-104 -72 -899 251 -1612 945 -2088 92 -63 118 -79 255 -152 90 -48 286 -131
337 -143 28 -6 27 -5 -41 131 -93 185 -169 398 -195 543 -2 14 -7 43 -11 65
-4 22 -9 49 -11 60 -8 43 -18 205 -18 295 0 218 37 451 98 615 l15 40 1 -90
c1 -49 3 -103 5 -120 2 -16 6 -57 9 -90 44 -437 258 -904 554 -1204 l63 -64
127 126 c170 168 306 280 493 405 305 204 704 399 1089 531 102 35 295 96 339
107 9 2 74 18 144 35 137 33 161 46 53 29 -36 -6 -78 -12 -94 -14 -15 -2 -58
-9 -97 -16 -38 -6 -83 -14 -100 -17 -16 -2 -120 -22 -230 -44 -690 -138 -1310
-359 -1673 -595 -45 -30 -86 -54 -90 -54 -12 1 -100 123 -147 205 -139 244
-189 568 -140 905 22 152 48 243 87 302 228 349 415 752 513 1106 28 102 65
306 65 355 -1 28 -4 23 -25 -31 -52 -134 -156 -317 -244 -427 -63 -79 -217
-228 -306 -296 -50 -38 -95 -69 -99 -69 -14 0 3 134 30 234 56 217 183 463
383 746 104 147 261 341 261 322 0 -28 -35 -133 -65 -193 l-35 -70 38 22 c143
88 374 253 467 334 125 110 180 164 266 259 146 161 256 329 308 471 36 98 44
116 92 211 77 152 131 225 259 355 99 101 196 173 306 229 69 35 75 40 49 41
-16 1 -39 2 -50 3 -11 1 -33 0 -50 -1z"/>
<path d="M21015 27963 c-28 -77 -176 -369 -248 -488 -302 -507 -657 -830
-1004 -915 -87 -21 -139 -29 -198 -30 l-40 0 24 -19 c66 -51 228 -85 384 -80
l115 4 12 -89 c56 -410 266 -729 544 -827 32 -11 60 -18 62 -16 2 1 -31 25
-72 53 -139 90 -248 227 -301 376 -31 91 -42 251 -23 354 37 200 144 419 309
629 109 139 178 247 257 400 84 163 134 293 169 437 24 97 44 258 33 258 -3 0
-13 -21 -23 -47z"/>
<path d="M11979 26436 c-5 -5 -320 -53 -404 -61 -33 -3 -71 -8 -85 -10 -14 -3
-50 -7 -80 -9 -30 -3 -109 -10 -175 -15 -247 -22 -605 -30 -735 -17 -25 2 -79
7 -120 11 -41 4 -82 8 -90 10 -8 2 -42 8 -75 14 -33 6 -71 13 -85 16 -63 14
-775 6 -930 -10 -19 -2 -78 -6 -130 -10 -52 -3 -111 -8 -130 -10 -19 -2 -60
-7 -90 -10 -30 -3 -71 -8 -90 -10 -19 -2 -60 -7 -90 -10 -30 -4 -62 -8 -70
-10 -8 -2 -40 -7 -70 -10 -179 -21 -486 -81 -740 -145 -762 -192 -1366 -489
-1795 -883 -96 -88 -169 -142 -415 -308 -309 -209 -644 -418 -864 -540 -195
-108 -513 -249 -561 -249 -8 0 -15 -5 -15 -11 0 -5 3 -8 8 -6 4 3 45 8 92 12
46 3 87 8 90 10 3 1 37 6 75 9 39 4 129 16 200 27 72 11 142 22 156 24 134 17
481 99 615 145 48 16 89 28 91 27 4 -4 -163 -133 -286 -220 -403 -287 -710
-415 -873 -363 -89 29 -328 150 -415 210 l-83 56 0 -47 c1 -306 186 -534 501
-618 129 -34 226 -43 415 -39 l161 3 -24 -77 c-25 -80 -66 -242 -77 -302 -3
-19 -8 -44 -10 -55 -5 -27 -24 -177 -31 -244 -7 -72 -7 -317 0 -394 14 -139
62 -386 83 -424 6 -10 9 -2 10 24 7 207 85 516 198 778 69 163 136 285 239
440 326 489 802 868 1405 1118 432 179 905 297 1335 334 179 16 686 8 800 -12
17 -2 46 -7 65 -10 19 -3 65 -10 103 -16 37 -6 72 -9 78 -7 19 6 -67 83 -129
116 -151 79 -334 112 -617 112 -93 0 -197 -2 -230 -5 l-60 -5 50 21 c287 121
915 305 1245 364 124 22 336 54 395 60 39 4 102 11 140 15 91 11 569 4 617 -8
40 -10 644 -9 763 2 39 4 99 9 135 12 184 15 379 48 465 80 50 18 -158 -149
-270 -217 -139 -84 -340 -174 -432 -194 -18 -4 -33 -10 -33 -15 0 -5 15 -5 33
0 17 5 49 11 71 15 21 3 42 7 46 10 3 2 21 7 38 10 54 9 332 92 422 125 47 18
96 35 110 40 14 4 50 19 80 32 30 14 75 33 100 44 269 115 559 306 744 488
126 124 132 134 50 87 -176 -101 -562 -217 -854 -256 -25 -3 -72 -10 -105 -15
-33 -5 -96 -12 -140 -15 -44 -4 -91 -8 -105 -11 -44 -7 -350 -18 -500 -18
-128 0 -390 9 -580 19 -439 23 -1294 23 -1560 0 -25 -2 -88 -6 -140 -10 -52
-3 -106 -8 -120 -10 -14 -2 -54 -7 -90 -10 -36 -3 -74 -7 -85 -9 -11 -2 -47
-7 -80 -10 -140 -16 -372 -63 -530 -108 -147 -41 -270 -89 -385 -149 -108 -57
-109 -59 40 89 347 344 1042 665 1735 801 139 28 264 51 305 57 187 28 223 31
445 39 88 3 180 8 205 10 25 2 90 6 145 10 55 3 116 8 135 10 19 2 74 7 122
10 48 3 98 8 110 10 13 2 55 6 93 10 39 3 81 8 95 10 14 2 50 7 80 10 30 3 66
7 79 10 14 2 45 7 70 10 25 3 60 8 76 10 294 52 413 78 552 124 96 31 220 90
192 91 -9 0 -18 -2 -20 -4z"/>
<path d="M19931 26288 c0 -4 -7 -37 -15 -75 -25 -119 -27 -135 -31 -273 -4
-145 10 -262 45 -351 10 -27 17 -49 15 -49 -7 0 -155 208 -213 300 -34 52
-107 170 -163 263 -90 148 -119 190 -119 173 0 -3 29 -52 64 -110 177 -292
289 -670 323 -1091 9 -98 8 -445 0 -485 -3 -14 -6 -33 -6 -43 -1 -16 -8 -14
-63 15 -120 64 -282 254 -393 460 -46 85 -52 85 -35 1 14 -70 55 -302 75 -423
12 -71 34 -220 39 -255 3 -22 11 -74 16 -115 6 -41 13 -95 15 -120 3 -25 9
-79 15 -120 16 -127 27 -234 35 -355 4 -49 8 -101 10 -115 23 -161 23 -787 0
-1015 -27 -257 -95 -536 -151 -623 -9 -13 -13 -26 -10 -29 16 -16 116 82 183
180 25 37 49 70 53 72 4 2 1 -21 -6 -53 -36 -154 -39 -421 -5 -575 26 -124 36
-143 45 -88 8 51 31 119 64 190 34 73 156 259 226 345 40 49 54 74 51 90 -52
223 -45 461 20 703 13 51 41 136 60 188 l36 96 -30 31 c-89 91 -152 299 -150
498 1 121 6 130 51 83 76 -80 142 -209 210 -413 39 -119 40 -116 8 60 -22 119
-26 145 -36 215 -3 28 -8 58 -10 67 -23 132 -35 507 -21 665 15 173 58 337
115 447 36 69 124 176 146 176 6 0 31 -39 55 -88 64 -127 163 -293 244 -407
39 -55 73 -102 76 -105 3 -3 24 -27 46 -55 147 -184 364 -372 565 -487 61 -35
206 -94 250 -102 l35 -6 -43 20 c-86 40 -253 190 -421 380 -46 52 -97 110
-112 127 -16 18 -29 35 -29 38 0 28 431 -271 505 -350 6 -6 48 -45 95 -86 182
-159 498 -476 735 -735 50 -54 107 -117 128 -139 35 -37 37 -37 23 -10 -28 54
-453 677 -666 975 -173 243 -416 571 -487 660 -7 8 -51 65 -98 125 -85 108
-102 129 -218 270 -150 180 -341 376 -441 451 -33 25 -101 65 -151 90 -261
129 -444 411 -538 834 -8 36 -15 62 -16 58z"/>
<path d="M9905 25039 c-270 -35 -443 -115 -498 -231 -50 -105 -17 -233 99
-395 l15 -21 -78 6 c-178 15 -769 7 -955 -13 -18 -2 -60 -6 -93 -10 -660 -67
-1281 -252 -1731 -515 -230 -136 -395 -262 -574 -440 -215 -215 -340 -401
-530 -785 -187 -380 -238 -492 -591 -1304 -226 -519 -355 -727 -612 -990 -146
-149 -369 -334 -612 -510 l-60 -43 40 6 c22 4 90 21 150 38 315 88 612 218
839 369 49 32 91 57 93 56 4 -5 -67 -211 -114 -332 -214 -548 -466 -943 -728
-1142 -57 -44 -59 -46 -26 -39 48 9 206 85 292 141 170 110 351 280 480 452
41 54 77 100 82 101 4 2 7 8 7 13 0 5 15 31 33 57 107 153 202 349 333 682 73
187 144 328 234 465 261 396 614 642 1027 714 l108 19 -130 0 c-367 -3 -704
-90 -914 -236 l-65 -46 73 95 c235 305 513 612 660 731 100 80 134 101 211
128 36 12 90 36 120 53 105 59 252 232 321 377 13 27 27 50 31 50 14 0 18
-428 4 -520 -3 -19 -12 -84 -20 -145 -16 -117 -50 -290 -66 -341 -6 -17 -12
-40 -15 -50 -24 -114 -112 -354 -194 -534 -88 -194 -265 -494 -329 -558 -28
-27 -291 -276 -341 -321 -14 -13 -85 -80 -157 -147 -72 -68 -146 -138 -165
-156 -19 -17 -70 -66 -114 -107 -45 -42 -147 -139 -228 -215 -81 -76 -145
-141 -143 -143 2 -2 21 0 42 6 22 5 50 12 64 15 123 23 519 149 760 241 385
147 818 369 1073 550 109 77 272 203 318 245 146 135 267 264 366 390 28 36
90 106 138 155 336 349 545 809 560 1235 11 288 15 366 19 390 42 207 104 354
220 525 75 111 271 310 386 392 100 71 189 127 195 121 2 -2 -19 -39 -47 -83
-193 -302 -422 -752 -507 -999 -65 -189 -100 -403 -81 -501 4 -23 8 -11 19 54
39 255 208 593 439 881 98 122 370 393 492 491 310 247 552 405 925 601 88 47
187 99 219 117 146 80 549 271 572 271 3 0 20 7 37 15 285 131 857 294 1162
331 22 3 49 7 61 9 11 2 45 7 75 11 30 4 63 10 74 15 13 6 3 7 -30 4 -90 -10
-209 -26 -250 -35 -41 -9 -71 -13 -160 -25 -27 -4 -61 -8 -75 -10 -26 -4 -466
-62 -535 -70 -36 -5 -137 -16 -265 -30 -25 -3 -63 -8 -85 -10 -22 -3 -65 -7
-95 -10 -53 -5 -219 -21 -310 -30 -143 -14 -302 -20 -515 -20 -226 1 -246 2
-347 28 -58 15 -132 36 -163 48 -65 24 -135 85 -135 118 0 75 103 163 310 265
l95 47 -70 -3 c-38 -1 -92 -6 -120 -9z"/>
<path d="M17964 24750 c-400 -53 -994 -362 -1422 -741 -21 -18 -48 -42 -61
-53 l-23 -21 5 41 c24 170 141 392 285 542 28 28 49 52 46 52 -9 0 -89 -53
-149 -99 -300 -227 -528 -554 -658 -941 -28 -84 -41 -140 -33 -140 3 0 27 13
53 29 167 103 578 229 1043 320 193 38 462 85 540 95 102 13 210 29 207 32 -1
2 -61 11 -132 21 -133 18 -594 26 -677 12 -21 -4 -38 -5 -38 -2 0 10 67 102
127 174 198 240 529 474 898 636 127 56 126 60 -11 43z"/>
<path d="M3895 24624 c-418 -238 -835 -775 -1107 -1424 -84 -201 -165 -340
-307 -525 -267 -347 -657 -705 -1066 -979 -120 -81 -119 -80 -69 -62 112 41
332 140 526 237 198 99 246 125 367 201 52 32 95 57 97 55 2 -1 -36 -43 -84
-92 -346 -356 -660 -782 -798 -1080 -39 -85 -76 -186 -70 -192 2 -2 30 29 62
69 32 40 61 75 64 78 4 3 38 41 77 85 65 74 306 317 363 365 14 12 41 36 60
53 230 209 556 425 808 536 423 186 811 204 1164 53 106 -46 109 -44 83 45
-30 103 -87 201 -145 251 -13 11 -11 12 10 6 142 -38 337 -198 445 -364 80
-122 162 -318 197 -471 l12 -54 6 45 c6 54 -7 214 -25 312 -14 74 -64 223
-102 308 -128 280 -371 508 -669 626 -282 111 -441 228 -513 375 -28 59 -52
169 -37 169 4 0 23 -8 44 -19 62 -32 177 -67 277 -86 22 -4 97 -9 166 -10
l126 -2 144 -74 c158 -82 253 -146 288 -193 56 -78 52 -74 41 -43 -12 34 -153
200 -236 277 -197 184 -425 349 -666 479 -43 23 -80 47 -84 52 -11 18 -5 133
10 191 56 212 261 490 583 791 34 31 56 57 50 57 -7 0 -48 -21 -92 -46z"/>
<path d="M20380 24455 c-1 -5 -3 -19 -4 -30 -2 -11 -7 -56 -11 -100 -4 -44 -9
-93 -11 -110 -5 -40 -5 -419 1 -470 2 -22 6 -67 10 -100 63 -656 353 -1385
772 -1942 30 -40 59 -76 65 -79 11 -7 -6 28 -33 66 -167 239 -365 907 -455
1535 -3 17 -7 39 -9 51 -7 30 -1 32 56 22 232 -42 474 -159 552 -266 20 -28
50 -92 71 -157 58 -173 164 -381 330 -646 l18 -30 -28 7 c-134 31 -404 221
-659 463 -116 109 -109 107 -102 29 23 -247 254 -626 617 -1012 104 -110 159
-166 164 -166 3 0 2 33 -1 74 -7 87 7 151 44 207 30 46 30 46 151 -12 171 -83
309 -255 395 -494 29 -82 72 -256 83 -335 12 -96 13 -103 20 -200 l6 -95 -23
21 c-13 11 -53 45 -89 75 -36 30 -67 56 -70 59 -3 3 -34 30 -70 60 -36 30 -67
57 -70 60 -3 3 -32 27 -65 55 -33 27 -62 52 -65 55 -3 3 -52 46 -110 95 l-105
89 -3 -78 c-5 -145 48 -352 133 -519 25 -49 45 -91 45 -93 0 -13 -115 57 -185
111 -71 56 -217 199 -316 310 -260 294 -703 943 -1059 1554 l-84 144 -27 -33
c-15 -18 -41 -58 -57 -89 -102 -193 -108 -429 -19 -656 18 -44 32 -83 32 -87
0 -4 -36 -25 -80 -47 -180 -90 -351 -280 -529 -585 l-73 -125 -23 57 c-50 122
-195 433 -257 552 -209 399 -381 608 -512 625 -16 2 -36 -2 -45 -8 -14 -11
-14 -20 5 -97 34 -138 47 -238 44 -340 -8 -307 -193 -466 -665 -570 -47 -10
-102 -21 -123 -24 -426 -65 -763 -263 -966 -568 l-58 -87 -6 112 c-8 144 -50
310 -111 441 -25 55 -48 97 -51 94 -3 -3 -17 -51 -30 -106 -65 -267 -189 -563
-316 -752 -78 -115 -248 -289 -345 -353 -215 -141 -408 -198 -689 -203 -248
-4 -459 32 -740 128 -258 88 -630 271 -800 393 -54 40 -58 39 -28 -6 80 -116
325 -287 663 -463 188 -97 365 -163 625 -231 143 -37 299 -69 385 -80 30 -4
58 -9 61 -10 26 -16 408 -25 536 -12 228 22 444 101 598 216 76 58 112 95 229
242 346 433 650 681 869 709 267 34 506 30 622 -10 104 -36 145 -83 145 -169
0 -44 -48 -146 -102 -213 -36 -46 -33 -45 62 18 241 160 437 428 539 739 17
50 31 83 31 75 1 -8 3 -26 6 -40 63 -403 -29 -791 -274 -1159 -79 -118 -122
-171 -219 -270 -40 -41 -71 -76 -70 -78 2 -2 53 22 113 52 210 105 411 284
591 527 l50 66 -1 -111 c-2 -250 41 -480 107 -563 l22 -28 12 134 c32 360 174
632 418 797 63 42 108 67 150 83 l26 10 -26 -38 c-37 -54 -66 -157 -62 -220 2
-28 6 -55 9 -58 4 -3 20 15 37 39 38 55 110 120 176 158 149 87 368 99 571 31
l81 -27 -38 50 c-105 140 -146 290 -136 504 3 69 8 133 10 141 2 8 9 42 16 75
l13 60 23 -47 c135 -279 509 -632 1155 -1090 296 -210 452 -389 605 -698 93
-187 159 -403 187 -615 11 -80 13 -86 20 -55 10 44 8 240 -3 340 -15 144 -20
185 -25 220 -6 41 -53 336 -59 365 -38 206 -71 371 -100 505 -19 91 -35 169
-35 175 0 16 129 -116 194 -200 189 -243 342 -574 426 -923 13 -51 26 -90 31
-85 19 19 28 152 25 378 -2 132 -1 233 1 225 84 -247 255 -580 418 -815 73
-105 155 -212 155 -201 0 3 -16 38 -35 76 -67 132 -130 359 -159 565 -23 165
-25 190 -31 315 -7 138 -4 137 85 -45 134 -273 247 -700 345 -1298 37 -224 88
-615 105 -806 15 -164 22 -226 26 -229 1 -2 12 26 23 62 29 94 60 322 77 556
8 127 11 181 20 345 4 83 8 170 9 195 2 25 3 68 4 96 l1 51 188 -186 c171
-170 494 -481 617 -596 28 -25 120 -116 206 -201 87 -84 163 -154 170 -154 8
0 -35 49 -96 108 -60 59 -122 121 -136 138 -106 125 -440 577 -633 857 -48 70
-101 142 -117 160 -32 34 -141 195 -179 262 -94 168 -135 244 -219 415 -53
107 -110 224 -125 260 -16 36 -46 101 -66 145 -143 307 -314 731 -345 855
-133 530 -335 1091 -566 1569 -43 90 -79 166 -79 170 -1 9 -40 57 -40 49 0 -4
20 -46 44 -95 88 -175 149 -428 173 -718 16 -194 5 -735 -16 -772 -5 -10 -11
-1 -20 29 -34 114 -276 698 -415 1000 -43 95 -225 459 -236 473 -4 6 -27 46
-50 90 -100 185 -258 432 -358 560 -31 39 -117 131 -191 206 -282 283 -541
478 -743 561 -170 69 -277 155 -378 303 -61 90 -86 140 -126 250 -18 50 -34
86 -34 80z"/>
<path d="M12645 24238 c-111 -276 -209 -661 -260 -1023 -3 -22 -8 -51 -10 -65
-3 -14 -7 -54 -10 -90 -4 -36 -8 -78 -10 -95 -25 -190 -25 -894 0 -1024 1 -9
6 -54 10 -101 4 -47 9 -93 11 -104 2 -10 6 -44 9 -75 4 -31 8 -63 10 -71 2 -8
7 -35 10 -60 10 -72 65 -337 75 -362 6 -15 9 43 10 172 1 107 3 202 4 210 2 8
6 58 10 110 14 196 73 425 140 544 32 56 101 135 110 125 2 -2 6 -83 10 -179
4 -96 8 -188 10 -205 2 -16 7 -61 11 -100 16 -173 63 -426 110 -601 148 -544
417 -1030 775 -1399 216 -224 447 -403 673 -525 89 -48 112 -48 40 1 -258 174
-532 463 -678 714 -126 217 -224 490 -251 700 -3 22 -9 65 -14 95 -9 61 -10
375 -1 430 6 34 7 33 40 -50 171 -426 479 -762 912 -994 279 -149 478 -199
784 -198 547 3 991 289 1273 822 79 149 159 362 179 475 6 39 5 37 -56 -80
-168 -320 -374 -541 -606 -651 -108 -51 -343 -103 -490 -108 -227 -8 -443 64
-592 198 -112 101 -223 281 -275 446 -19 62 -23 97 -23 200 0 124 0 125 38
200 76 154 222 263 447 336 97 31 137 33 270 11 173 -29 369 -37 544 -23 98 8
239 31 277 44 22 8 20 10 -21 17 -25 4 -94 18 -155 32 -731 163 -1289 490
-1654 971 -231 304 -383 689 -417 1052 -3 36 -7 66 -9 68 -4 5 -43 -126 -50
-168 -3 -19 -7 -48 -10 -65 -7 -36 -7 -269 -1 -305 3 -14 7 -52 11 -85 4 -33
13 -91 21 -128 21 -103 23 -100 -48 -70 -165 70 -292 204 -390 413 -65 138
-120 322 -147 495 -6 39 -13 81 -15 95 -3 14 -5 36 -6 50 l-2 25 -7 -25 c-12
-40 -13 -267 -1 -355 44 -331 177 -632 418 -945 81 -105 320 -345 427 -430 44
-34 82 -64 84 -66 6 -6 -50 5 -124 23 -318 76 -625 318 -886 698 -177 256
-350 614 -468 965 -23 68 -44 126 -45 128 -2 1 -11 -16 -21 -40z"/>
<path d="M12330 24152 c-314 -147 -486 -241 -710 -387 -92 -60 -279 -196 -310
-226 -9 -8 -44 -39 -80 -69 -456 -390 -640 -827 -519 -1235 38 -128 55 -153
195 -290 409 -402 610 -761 591 -1055 -11 -174 -53 -225 -178 -217 -196 12
-344 216 -449 616 -21 80 -39 139 -40 131 -11 -102 2 -289 31 -429 112 -544
482 -973 1034 -1198 155 -63 362 -125 490 -147 39 -7 193 -83 325 -162 343
-203 572 -446 646 -684 7 -25 14 -47 14 -49 0 -2 -42 -1 -92 1 -216 12 -437
127 -656 342 l-83 81 36 -80 c81 -179 189 -360 295 -494 166 -210 395 -386
581 -446 30 -10 58 -21 62 -25 13 -11 -97 -86 -156 -107 -89 -30 -264 -20
-371 23 -16 6 -17 4 -11 -17 14 -43 71 -124 116 -163 55 -48 127 -82 202 -97
54 -11 57 -13 53 -38 -2 -14 -5 -33 -5 -41 -1 -12 -21 -19 -80 -27 -235 -35
-545 -205 -841 -462 -108 -93 -319 -307 -436 -441 -103 -118 -276 -332 -309
-384 -19 -28 -19 -29 0 -23 43 13 214 45 270 52 32 4 67 8 76 10 129 25 754
25 831 1 7 -3 38 -7 68 -10 30 -3 96 -12 145 -21 245 -41 434 -88 671 -169
164 -55 366 -138 371 -153 11 -28 -29 -103 -77 -146 -136 -122 -415 -188 -835
-197 l-40 -1 27 -21 c76 -59 249 -99 436 -101 61 -1 112 -5 112 -9 0 -11 -85
-67 -137 -90 -65 -29 -168 -57 -233 -64 -30 -3 -68 -7 -85 -9 -16 -2 -73 -4
-125 -4 l-95 -1 35 -22 c19 -11 100 -54 180 -94 503 -252 1019 -385 1473 -379
42 1 77 -2 77 -5 0 -9 -147 -77 -233 -107 -176 -61 -391 -92 -612 -87 -82 2
-159 5 -170 7 -46 10 -125 18 -125 14 0 -19 238 -66 437 -87 78 -8 460 -6 499
3 11 3 47 8 79 11 32 4 98 16 148 27 49 11 91 18 93 16 2 -1 -45 -32 -104 -67
-267 -159 -546 -352 -782 -539 -152 -120 -440 -400 -500 -486 l-35 -50 35 23
c482 315 883 529 1145 612 139 44 317 140 410 221 l35 31 -14 -46 c-29 -97
-107 -193 -211 -262 -30 -20 -55 -38 -55 -40 0 -9 142 51 215 90 171 90 299
188 423 322 l79 85 41 -148 c54 -194 71 -297 68 -413 -1 -52 0 -108 4 -125 6
-29 7 -28 14 16 4 25 6 88 3 139 -5 78 -1 110 19 189 92 364 358 598 785 689
148 32 235 40 428 41 261 2 121 10 -264 15 -469 8 -717 17 -788 32 -26 5 -28
9 -21 37 22 100 133 208 286 280 120 56 366 118 523 132 39 3 79 8 90 10 77
16 458 22 720 12 l150 -6 -108 53 c-256 127 -599 238 -881 286 -195 33 -335
45 -508 45 -76 -1 -138 0 -138 1 0 1 35 23 78 50 600 369 1001 779 1077 1100
27 111 21 113 -75 21 -273 -262 -603 -458 -943 -561 -168 -51 -277 -71 -464
-85 -99 -7 -137 -7 -295 4 -92 6 -96 7 -228 31 -178 32 -451 125 -603 205
l-29 15 59 44 c128 96 488 384 513 410 3 3 39 34 80 69 247 210 605 564 780
771 30 36 57 67 61 70 17 16 193 258 238 328 77 122 156 283 185 376 28 91 45
162 46 190 0 18 -1 18 -27 0 -128 -85 -284 -152 -418 -181 -77 -16 -228 -23
-290 -13 -46 7 -57 0 107 70 263 113 492 277 618 444 39 52 49 83 18 59 -37
-29 -265 -103 -368 -118 -25 -4 -54 -10 -65 -12 -48 -13 -394 -11 -480 2 -463
69 -916 286 -1346 646 -97 82 -105 87 -94 69 16 -28 128 -165 179 -218 102
-108 133 -139 226 -222 214 -192 463 -353 688 -445 l54 -22 -64 -19 c-93 -28
-343 -26 -448 4 -41 11 -76 19 -78 17 -2 -2 36 -24 85 -49 128 -66 290 -174
358 -239 74 -69 64 -72 -99 -22 -403 122 -806 330 -1161 599 -103 79 -309 254
-326 278 -3 4 -44 47 -90 95 -162 166 -312 359 -448 575 -72 115 -209 376
-247 471 -14 37 -29 66 -31 63 -3 -3 0 -42 6 -88 6 -46 13 -112 17 -148 3 -36
8 -76 10 -90 9 -44 13 -394 5 -413 -6 -17 -8 -17 -34 4 -36 28 -136 153 -212
265 -447 660 -810 1469 -934 2082 -29 143 -35 187 -49 342 -10 112 -2 356 13
410 1 3 5 26 9 53 5 26 11 47 15 47 4 0 14 -46 24 -103 35 -208 108 -391 181
-453 49 -42 58 -43 51 -1 -23 131 -30 399 -14 537 16 146 25 195 55 299 79
270 217 471 412 597 33 21 69 44 79 51 26 17 4 14 -37 -5z"/>
<path d="M18895 23849 c-400 -264 -984 -494 -1360 -534 -206 -22 -407 -107
-612 -258 -87 -65 -319 -297 -406 -407 -107 -134 -316 -454 -305 -466 3 -2 45
16 94 42 329 171 812 323 1173 368 75 10 59 17 -19 9 -41 -4 -140 -7 -220 -8
-163 0 -229 13 -260 53 -20 24 -20 25 3 65 54 97 361 292 567 361 241 80 422
116 561 112 104 -3 145 -18 180 -66 40 -55 31 -128 -32 -254 -81 -162 -213
-337 -353 -469 -137 -129 -354 -276 -526 -355 -71 -33 -126 -54 -470 -185
-345 -131 -629 -215 -864 -257 -135 -24 -171 -28 -286 -30 -100 -2 -83 -14 35
-24 44 -4 96 -9 115 -11 60 -6 518 -5 588 1 432 36 762 107 1087 236 114 45
308 137 366 174 22 14 44 22 48 19 13 -7 3 -91 -18 -151 -58 -164 -288 -401
-543 -560 -27 -16 -48 -32 -48 -35 0 -8 150 44 290 100 145 58 356 170 470
249 168 116 306 276 341 394 23 78 115 549 134 683 3 23 7 50 9 60 2 11 7 43
10 70 3 28 8 66 11 85 3 19 8 53 11 75 3 22 7 128 8 235 2 149 7 209 20 255
38 127 130 288 240 418 31 37 56 67 54 66 -2 0 -43 -27 -93 -60z"/>
<path d="M10500 23222 c-175 -177 -205 -208 -335 -357 -507 -577 -909 -1170
-1226 -1806 -127 -255 -298 -653 -286 -665 2 -3 41 51 85 118 45 68 102 152
127 188 25 36 57 83 72 105 33 50 274 367 293 385 3 3 44 50 91 105 136 158
260 279 379 371 83 64 140 99 140 84 0 -59 -218 -508 -335 -690 -12 -19 -53
-84 -91 -145 -209 -334 -618 -889 -718 -973 -48 -41 -298 -291 -362 -362 -426
-479 -707 -986 -814 -1473 -41 -182 -36 -195 14 -42 93 279 187 462 342 661
182 235 480 429 731 477 30 6 32 4 49 -38 43 -113 -8 -236 -161 -390 -128
-129 -270 -230 -515 -367 l-105 -59 95 2 c236 4 491 96 696 251 71 53 180 163
248 251 16 20 34 37 38 37 5 0 16 -17 25 -37 44 -106 -56 -351 -244 -603 -47
-63 -61 -93 -95 -200 -21 -69 -43 -138 -48 -155 -24 -78 -52 -288 -52 -400 -1
-191 41 -316 133 -399 79 -71 140 -90 289 -90 169 -1 259 9 422 49 265 65 467
191 572 356 20 32 19 31 -55 -18 -320 -218 -667 -272 -975 -152 -69 27 -106
91 -108 183 -2 184 103 372 349 621 127 129 240 221 308 254 165 79 349 73
515 -14 35 -19 69 -32 76 -29 20 8 58 83 72 142 7 30 12 95 11 143 -1 49 2 89
6 89 14 0 116 -58 189 -107 64 -43 144 -117 186 -173 44 -59 72 -155 65 -221
-3 -32 -3 -33 8 -9 17 39 23 273 10 390 -41 370 -189 772 -407 1105 -22 34
-12 30 56 -23 263 -205 497 -601 634 -1073 59 -206 88 -350 132 -662 l5 -37
-43 6 c-79 11 -262 62 -353 99 -152 61 -335 168 -453 263 l-43 35 56 -82 c70
-101 125 -205 125 -235 l0 -23 -72 15 c-92 18 -309 19 -408 2 -153 -26 -308
-87 -430 -170 -62 -43 -153 -120 -147 -126 2 -3 51 7 108 20 57 13 129 27 159
31 30 4 58 9 61 10 12 8 189 19 294 19 214 0 386 -31 529 -96 92 -42 223 -135
275 -195 79 -91 125 -222 120 -341 -4 -100 -12 -98 -35 9 -31 138 -61 234 -76
247 -10 8 -13 -8 -14 -76 -3 -249 -150 -528 -432 -823 l-110 -114 70 -3 c140
-6 334 44 445 114 l52 33 -39 -72 c-72 -134 -151 -359 -174 -497 -28 -170 -25
-323 10 -515 37 -203 39 -375 5 -452 -19 -43 -55 -83 -75 -83 -2 0 -16 25 -30
55 -30 65 -79 139 -120 181 -32 32 -105 84 -118 84 -4 0 19 -51 51 -114 118
-230 201 -505 227 -750 9 -90 13 -133 14 -176 1 -42 3 -38 40 72 43 129 107
258 178 357 62 89 191 216 282 280 l75 52 144 -2 c277 -4 483 -63 592 -170 36
-36 51 -58 30 -44 -29 17 -181 32 -311 30 -112 -2 -163 -7 -225 -24 -43 -12
-83 -25 -87 -29 -4 -4 48 -36 117 -71 279 -141 495 -312 605 -478 56 -85 86
-166 89 -245 l2 -58 -100 35 c-326 114 -704 332 -929 537 -19 16 -36 28 -38
25 -13 -13 88 -331 157 -494 49 -117 130 -278 176 -350 18 -29 33 -54 33 -57
0 -9 115 -174 177 -254 385 -492 896 -778 1503 -838 36 -3 70 -9 75 -12 7 -3
7 -2 0 5 -5 6 -50 27 -100 48 -231 97 -505 256 -705 409 -79 60 -264 244 -309
306 l-33 45 44 6 c48 7 431 3 523 -5 228 -22 355 -41 483 -72 109 -27 240 -70
255 -84 9 -8 -85 -31 -203 -50 -103 -17 -243 -26 -353 -24 l-102 2 85 -40 c47
-22 137 -57 201 -78 293 -98 547 -114 736 -46 l63 23 -49 -61 c-109 -137 -168
-258 -175 -354 -6 -81 6 -96 34 -41 72 141 235 281 416 358 160 68 328 97 576
100 161 2 296 17 411 46 214 54 476 163 697 290 36 21 74 43 85 49 79 45 278
180 390 264 129 97 268 213 262 218 -3 3 -27 -8 -55 -25 -193 -114 -464 -202
-702 -229 -159 -17 -405 1 -537 41 l-43 13 63 54 c223 196 366 429 391 640 l7
55 -32 -35 c-299 -329 -536 -496 -801 -565 -73 -20 -198 -30 -198 -18 0 16 52
89 108 152 57 65 161 138 253 178 33 14 57 28 55 31 -8 7 -258 -75 -411 -135
-332 -131 -557 -273 -691 -435 -15 -18 -44 -31 -100 -46 -243 -65 -491 -47
-703 50 -104 48 -290 192 -260 202 8 2 61 19 119 36 332 101 671 264 890 428
141 106 299 274 350 371 12 23 11 24 -11 16 -61 -19 -278 -74 -314 -79 -22 -4
-65 -11 -95 -16 -153 -25 -386 -32 -540 -14 -380 43 -662 201 -836 469 -48 75
-94 157 -94 170 0 11 35 3 152 -36 352 -116 602 -253 765 -416 49 -49 85 -78
89 -72 11 18 5 113 -10 156 -21 59 -63 138 -102 193 l-35 48 33 -4 c18 -3 47
-7 63 -9 199 -28 475 -24 587 9 48 14 117 60 106 71 -2 3 -49 11 -104 19 -643
97 -1168 297 -1456 556 l-58 52 21 32 c68 99 237 227 410 308 164 79 451 165
608 184 25 3 48 7 51 9 3 2 32 7 65 10 32 4 66 9 74 10 9 2 27 4 40 4 13 1 22
3 20 6 -6 5 -193 31 -299 41 -41 3 -82 8 -91 9 -60 12 -286 20 -524 20 -310 0
-394 -6 -547 -42 -37 -8 -72 -13 -78 -11 -19 6 33 71 89 110 32 22 91 49 149
67 91 28 114 33 186 45 16 3 31 8 35 12 9 10 -100 -5 -204 -27 -354 -77 -645
-228 -864 -449 l-94 -94 7 74 c28 296 156 605 370 890 94 126 165 201 355 380
35 32 200 160 277 213 119 83 292 183 467 272 86 43 155 80 154 82 -2 1 -57
-11 -123 -28 -351 -88 -724 -114 -869 -59 l-26 10 20 38 c64 125 272 239 569
312 51 12 92 24 90 25 -2 2 -75 5 -163 9 -179 7 -223 11 -345 32 -87 16 -190
55 -190 73 0 17 150 67 285 95 125 26 196 31 426 31 251 0 251 -3 9 55 -285
67 -645 182 -835 265 -356 156 -535 272 -666 435 -32 39 -79 120 -79 134 0 3
15 -3 33 -14 47 -28 180 -76 272 -99 152 -38 265 -50 445 -46 148 4 171 6 322
31 141 23 144 30 17 37 -191 11 -369 58 -516 137 -125 67 -232 156 -146 122
35 -14 182 -48 248 -57 95 -13 300 -20 395 -13 141 9 193 17 320 45 102 22
304 82 298 89 -2 1 -48 5 -103 8 -420 27 -834 161 -1160 373 -453 296 -737
732 -849 1300 -31 155 -39 219 -51 383 -6 78 -6 410 -1 460 3 19 7 74 10 122
4 48 13 138 22 200 9 62 18 131 21 153 12 100 87 455 119 569 24 84 16 83 -48
-10 -148 -213 -346 -437 -421 -475 l-38 -20 7 28 c18 81 71 218 119 312 103
202 232 374 443 594 20 20 32 37 27 37 -5 0 -88 -80 -185 -178z"/>
<path d="M9330 22343 c-193 -322 -416 -667 -538 -833 -103 -140 -256 -319
-273 -320 -4 0 -2 19 3 43 18 78 -8 298 -32 270 -4 -4 -17 -33 -29 -63 -125
-301 -362 -673 -602 -945 -53 -61 -298 -306 -354 -355 -229 -201 -463 -370
-745 -537 -133 -78 -403 -215 -530 -268 -36 -15 -83 -35 -105 -45 -51 -22
-192 -70 -475 -160 -267 -85 -439 -148 -650 -237 -151 -64 -488 -231 -546
-270 -16 -11 -74 -49 -129 -85 -268 -174 -459 -376 -500 -528 -3 -14 7 -2 23
27 43 76 105 128 217 183 119 58 232 92 398 119 180 29 204 31 412 36 202 5
314 13 392 29 15 3 44 8 63 11 19 3 42 8 50 10 8 2 31 7 50 10 19 3 53 11 75
17 22 5 45 11 50 12 182 37 957 265 1005 296 22 14 12 12 -75 -15 -44 -14
-120 -33 -170 -42 -110 -20 -333 -21 -430 -3 l-69 13 114 37 c63 21 156 54
205 75 100 41 351 165 433 214 29 17 55 31 57 31 5 0 205 123 315 194 168 109
379 256 507 354 32 23 35 24 30 7 -3 -11 -9 -33 -13 -50 -22 -94 -123 -287
-218 -420 -94 -131 -277 -355 -365 -446 -368 -381 -589 -587 -704 -658 -121
-74 -227 -160 -352 -285 -143 -144 -162 -164 -255 -290 -289 -390 -544 -942
-695 -1509 -29 -106 -29 -142 0 -55 73 227 257 396 500 460 75 20 135 31 135
24 0 -3 -14 -28 -30 -55 -47 -76 -125 -247 -159 -350 -35 -104 -76 -299 -85
-406 -8 -82 -8 -292 -1 -350 3 -22 7 -60 10 -85 39 -320 176 -693 378 -1025
38 -63 130 -195 143 -206 17 -14 16 -2 -6 111 -5 25 -14 83 -20 130 -6 47 -13
99 -16 115 -8 61 -19 253 -18 350 1 376 90 637 261 767 62 46 168 87 184 71
14 -14 96 -217 129 -319 34 -105 65 -233 75 -304 3 -25 8 -57 11 -71 12 -59
11 -271 -2 -364 -31 -235 -119 -438 -253 -585 -77 -85 -51 -72 32 16 367 387
631 814 716 1156 31 123 36 167 35 303 0 98 -6 143 -32 250 -50 207 -61 299
-58 500 3 138 8 202 24 275 33 150 88 297 134 363 11 16 18 30 16 33 -3 2 -42
-28 -89 -68 -170 -144 -640 -474 -628 -440 2 5 35 44 74 87 160 177 285 358
341 492 19 46 24 77 24 148 0 101 14 163 64 294 59 152 206 439 301 586 17 28
35 56 40 64 4 7 -28 -12 -71 -43 -162 -115 -415 -254 -578 -317 -102 -40 -206
-46 -230 -14 -27 36 -18 58 41 100 242 171 602 526 892 879 343 418 788 1083
819 1226 7 30 36 109 64 175 52 119 282 586 399 805 117 222 302 566 354 660
29 52 66 120 83 150 30 56 356 644 407 735 15 28 46 81 67 118 22 38 38 71 35
73 -3 3 -28 -35 -57 -83z"/>
<path d="M3355 21813 c-305 -24 -621 -153 -882 -359 -57 -45 -553 -539 -668
-664 -584 -640 -893 -1110 -920 -1400 l-6 -65 56 104 c141 266 381 573 643
824 300 288 620 511 1017 712 182 92 482 222 491 212 2 -2 -18 -20 -44 -40
-26 -20 -60 -48 -77 -62 -16 -15 -57 -50 -90 -78 -81 -70 -348 -337 -415 -415
-143 -166 -263 -343 -324 -477 l-27 -60 78 76 c191 186 346 301 530 393 82 41
182 80 188 74 3 -3 -268 -277 -1231 -1251 -184 -185 -334 -340 -334 -343 0 -6
69 42 80 56 16 19 470 363 625 474 231 164 753 502 900 582 11 6 80 43 153 83
412 225 816 383 1105 432 37 6 66 13 64 15 -4 4 -127 31 -184 39 -21 4 -123 8
-228 10 -181 3 -332 -9 -439 -34 l-39 -10 39 42 c164 174 312 306 444 395 83
55 199 116 245 128 l30 8 -25 6 c-48 13 -209 -9 -323 -44 -56 -17 -56 -17 28
69 65 66 143 184 167 254 20 57 25 122 13 163 -12 37 -52 85 -77 91 -13 3 -41
10 -63 16 -131 34 -362 55 -500 44z"/>
<path d="M20950 20656 c0 -3 24 -31 54 -62 58 -59 132 -193 160 -291 l15 -53
-102 -1 c-111 -1 -133 -2 -278 -13 -487 -35 -898 -165 -1072 -338 l-39 -38 90
-88 c247 -242 415 -594 487 -1024 3 -21 9 -38 13 -38 15 1 60 77 75 126 8 27
14 69 13 92 l-2 43 45 -43 c25 -24 47 -46 49 -50 4 -9 154 -134 207 -173 22
-16 42 -32 45 -35 13 -16 184 -118 283 -170 93 -49 255 -120 272 -120 3 0 11
16 19 35 29 68 135 150 237 184 32 10 41 9 75 -11 58 -34 71 -45 166 -140 89
-88 197 -226 284 -362 56 -87 77 -101 35 -23 -142 262 -181 687 -105 1137 18
107 19 112 37 185 10 37 11 53 4 41 -101 -162 -146 -215 -210 -247 -37 -19
-38 -19 -34 -2 6 21 16 81 22 138 2 22 7 67 11 100 11 92 8 393 -5 459 -9 51
-21 71 -87 152 -149 184 -429 427 -649 564 -38 24 -80 50 -92 58 -13 8 -23 12
-23 8z m324 -614 c128 -32 195 -94 235 -217 27 -82 34 -143 33 -260 -1 -124
-17 -228 -42 -275 -57 -103 -97 -272 -99 -407 l-1 -63 -62 34 c-123 67 -315
111 -498 115 -111 2 -143 14 -213 79 -28 27 -69 59 -89 71 -139 84 -252 310
-293 591 -7 47 19 88 95 147 122 96 280 165 435 192 33 6 71 13 85 15 64 12
338 -3 414 -22z"/>
<path d="M17995 20514 c-228 -48 -478 -197 -688 -409 -292 -295 -552 -811
-712 -1410 -120 -452 -357 -974 -618 -1365 -162 -242 -378 -492 -532 -618
l-40 -33 40 15 c53 19 108 42 173 72 29 13 54 24 57 24 20 0 468 224 605 303
291 167 378 233 600 456 179 180 356 388 513 605 49 66 92 122 97 124 21 8 27
-179 9 -304 -22 -161 -100 -419 -190 -633 -27 -63 -47 -117 -44 -119 6 -6 109
64 190 128 221 176 512 499 705 785 30 44 57 84 61 88 3 5 12 -36 18 -90 34
-276 136 -615 293 -978 54 -125 185 -395 192 -395 1 0 -8 46 -21 103 -12 56
-30 140 -38 187 -8 47 -17 94 -19 105 -6 31 -16 97 -20 130 -3 17 -7 44 -9 60
-3 17 -8 62 -12 100 -4 39 -9 86 -12 105 -11 94 -9 434 3 539 30 247 105 442
217 556 34 36 70 65 78 65 9 0 25 -23 39 -57 89 -221 251 -473 401 -628 37
-38 66 -71 64 -73 -6 -6 -75 18 -145 51 -89 41 -191 112 -279 193 -87 80 -81
59 25 -81 409 -545 947 -887 1619 -1031 28 -6 182 -32 230 -38 22 -3 103 -8
180 -11 l140 -5 -130 29 c-317 70 -543 157 -730 279 -108 70 -261 231 -312
327 -61 116 -90 235 -84 348 l1 29 53 -45 c152 -128 372 -246 592 -316 181
-57 184 -53 40 45 -520 350 -925 763 -1210 1234 -108 178 -216 413 -260 562
l-16 57 -87 -88 c-73 -74 -122 -112 -255 -196 -8 -6 -18 -30 -20 -55 -19 -156
-117 -267 -277 -310 -47 -13 -92 2 -117 38 -15 22 -18 47 -18 135 0 59 -1 107
-3 107 -12 0 -129 -100 -188 -161 -61 -63 -149 -176 -191 -244 -36 -58 -123
-226 -138 -268 -25 -66 -35 -67 -36 -5 -3 150 7 232 42 344 60 195 132 300
364 529 192 190 295 312 410 485 63 96 185 322 185 343 0 5 -21 -14 -46 -42
-93 -104 -467 -356 -779 -525 -111 -61 -185 -118 -272 -209 -201 -213 -406
-537 -645 -1022 -65 -132 -118 -237 -118 -234 0 3 34 172 75 375 41 203 91
448 111 544 44 216 97 379 175 535 134 270 344 500 609 670 89 58 272 146 353
171 45 14 54 20 40 26 -28 11 -221 6 -288 -8z"/>
<path d="M3279 20009 c-229 -131 -419 -284 -530 -427 -29 -37 -71 -87 -94
-112 -23 -25 -78 -90 -122 -145 -456 -571 -761 -1395 -873 -2355 -18 -156 -18
-162 -25 -245 -3 -44 -10 -127 -15 -185 -9 -118 -6 -924 4 -985 9 -51 16 -57
17 -14 0 38 5 118 14 254 7 101 9 127 25 270 90 810 371 1555 734 1950 l46 50
-26 -60 c-128 -287 -204 -491 -279 -751 -58 -202 -135 -559 -150 -699 -3 -27
-7 -61 -9 -75 -16 -98 -31 -287 -22 -279 3 3 15 48 25 101 94 454 293 975 534
1398 136 240 154 264 179 255 36 -14 57 -71 82 -225 3 -14 5 -88 6 -165 2
-136 10 -150 23 -39 22 180 112 487 212 724 153 362 457 829 703 1079 24 24
41 45 39 47 -2 2 -53 -36 -113 -84 -356 -285 -686 -464 -902 -488 l-63 -7 2
94 c2 116 28 248 68 344 5 11 17 40 27 65 81 196 267 447 494 663 68 64 121
117 118 117 -2 0 -60 -32 -129 -71z"/>
<path d="M3446 18673 c-144 -473 -382 -1175 -451 -1328 -7 -16 -29 -70 -49
-118 -49 -120 -100 -221 -146 -288 -60 -89 -87 -149 -144 -322 -50 -150 -179
-645 -226 -867 -87 -409 -185 -889 -206 -1005 -2 -16 -7 -37 -9 -45 -2 -8 -7
-31 -10 -50 -3 -19 -15 -84 -26 -143 -12 -60 -19 -111 -16 -113 2 -2 25 79 51
181 225 885 508 1570 800 1934 64 79 176 188 231 224 36 23 52 26 165 32 69 3
160 8 203 11 l79 5 -65 -68 c-282 -296 -549 -711 -710 -1103 -114 -277 -197
-606 -224 -885 -11 -111 -7 -573 5 -610 9 -27 10 -24 12 30 5 231 56 503 140
755 23 69 45 130 50 135 4 6 11 21 15 35 12 39 127 268 175 345 152 249 309
429 560 645 106 92 417 400 490 487 30 36 60 71 65 77 33 35 152 195 209 281
67 100 193 341 184 350 -3 3 -26 -22 -52 -55 -65 -82 -171 -157 -261 -185
l-44 -13 14 34 c23 55 70 117 133 175 155 144 382 250 716 333 151 38 166 44
131 49 -46 6 -495 1 -540 -7 -16 -3 -70 -10 -120 -17 -207 -27 -425 -86 -598
-163 l-58 -25 18 31 c31 54 156 172 243 230 185 122 395 208 705 289 l70 18
-280 -4 c-154 -2 -296 -6 -315 -9 -19 -2 -64 -7 -100 -11 -173 -17 -295 -39
-435 -77 -110 -30 -263 -94 -297 -125 -10 -9 -20 -14 -23 -12 -2 3 2 41 10 84
25 147 36 419 21 525 -3 19 -8 62 -11 95 -8 75 -42 266 -53 295 -7 18 -11 12
-26 -37z"/>
<path d="M8320 18199 c-191 -101 -405 -249 -590 -408 -171 -148 -451 -453
-555 -606 -19 -27 -48 -69 -65 -92 -16 -24 -26 -43 -22 -43 4 0 34 27 66 60
66 66 188 153 308 219 90 49 278 133 278 123 0 -3 -21 -49 -47 -102 -180 -370
-371 -907 -418 -1180 -3 -19 -10 -53 -15 -75 -35 -160 -44 -268 -45 -580 -2
-322 -4 -358 -31 -495 -76 -381 -257 -775 -513 -1115 -82 -108 -80 -108 59 -1
189 146 354 312 447 451 57 85 79 132 107 227 44 151 110 267 253 447 67 83
294 319 394 410 l37 33 21 -94 c40 -170 90 -411 111 -538 28 -168 28 -168 35
-225 4 -27 8 -61 10 -75 2 -14 7 -61 11 -105 3 -44 8 -89 10 -100 6 -33 5
-365 -2 -430 -16 -156 -65 -313 -107 -339 -24 -15 -91 20 -143 76 -83 89 -145
264 -175 493 -7 55 -13 200 -14 322 0 123 -3 223 -6 223 -12 0 -60 -133 -81
-220 -27 -115 -34 -413 -12 -550 16 -107 45 -234 74 -327 36 -118 199 -436
348 -678 158 -258 469 -681 647 -879 6 -6 39 -45 75 -86 294 -340 999 -1025
1026 -997 2 2 -30 33 -72 67 -282 234 -527 558 -762 1011 -129 247 -306 667
-355 839 -15 52 -88 418 -101 505 -4 22 -8 54 -11 70 -11 69 -18 132 -34 275
-13 110 -10 298 4 350 7 25 22 77 34 115 18 59 44 195 65 345 14 99 34 324 35
398 1 65 14 60 34 -11 54 -191 66 -481 31 -777 -20 -172 -25 -550 -10 -695 26
-243 61 -412 126 -605 87 -261 234 -517 358 -624 l33 -29 -28 49 c-82 141
-165 365 -202 542 -63 306 -53 640 29 963 46 180 157 469 181 469 15 0 57
-105 75 -186 20 -90 29 -472 14 -604 -5 -41 -12 -102 -15 -135 -4 -33 -12 -93
-19 -132 -12 -70 -11 -73 7 -73 26 0 108 61 151 113 l36 42 1 -45 c0 -25 2
-53 4 -63 2 -10 9 -51 15 -90 66 -404 259 -864 517 -1230 33 -46 189 -242 243
-306 34 -40 34 -16 0 34 -83 121 -178 391 -206 584 -3 20 -7 48 -10 64 -15 74
-30 286 -32 430 l-1 162 19 -92 c92 -428 415 -890 895 -1279 61 -49 134 -105
162 -124 48 -33 53 -40 73 -109 73 -244 59 -450 -42 -618 -62 -104 -207 -229
-315 -272 -65 -26 -31 -28 77 -6 389 83 852 332 1188 639 23 21 45 37 47 34 3
-2 -8 -32 -24 -65 -42 -87 -88 -221 -106 -310 -14 -72 -26 -193 -19 -193 1 0
24 35 49 78 126 207 276 348 470 442 118 57 233 87 368 96 113 8 108 15 81
-113 -40 -197 -132 -363 -272 -494 -189 -178 -459 -284 -827 -325 -77 -9 -384
-9 -421 0 l-29 6 30 -25 c42 -36 178 -101 250 -119 358 -91 860 25 1394 322
62 34 116 61 118 58 10 -10 -40 -154 -87 -248 -71 -144 -231 -373 -318 -455
-34 -33 -18 -29 82 23 195 101 381 239 561 418 168 168 250 265 370 441 38 55
71 104 75 108 4 4 -4 -23 -16 -60 -49 -147 -66 -266 -70 -478 -3 -210 4 -296
37 -485 35 -199 108 -462 178 -640 l30 -75 26 60 c38 84 139 290 176 355 43
78 187 305 211 335 5 6 25 33 46 61 37 51 88 117 107 138 6 6 35 41 64 76 57
68 273 286 351 356 577 511 1375 867 2209 984 75 11 164 20 199 21 35 1 59 5
55 9 -9 8 -308 67 -378 75 -124 14 -154 18 -175 22 -45 9 -493 12 -550 3 -30
-5 -73 -11 -96 -14 -73 -9 -184 -37 -246 -62 -33 -14 -62 -23 -64 -21 -2 2 11
35 30 73 31 64 107 169 159 219 106 102 264 206 420 279 62 29 128 60 147 68
l35 17 -40 -4 c-22 -3 -67 -7 -100 -10 -137 -11 -361 -44 -512 -75 -502 -103
-957 -299 -1283 -553 -99 -77 -271 -253 -335 -342 l-58 -80 6 125 c9 198 67
491 175 890 33 118 57 217 55 219 -2 3 -11 -6 -20 -20 -35 -53 -193 -199 -266
-247 -137 -90 -223 -106 -344 -67 -108 36 -196 47 -358 48 -133 0 -444 -12
-455 -18 -3 -1 -47 -6 -97 -9 -51 -4 -103 -9 -115 -11 -22 -3 -60 -7 -183 -21
-27 -3 -61 -7 -75 -9 -144 -21 -149 -19 -102 37 41 50 60 64 148 108 124 62
332 107 579 125 402 30 736 236 919 569 52 95 56 117 10 65 -211 -237 -466
-392 -749 -455 -11 -3 -96 -7 -190 -9 -233 -5 -494 -15 -530 -20 -16 -2 -65
-7 -108 -10 -43 -4 -88 -8 -100 -10 -12 -2 -44 -6 -72 -10 -236 -28 -451 -89
-531 -150 -18 -14 -34 -25 -36 -25 -2 0 -3 24 -1 53 2 57 -17 146 -47 213 -60
138 -218 303 -350 369 -169 84 -311 262 -468 585 -140 287 -277 691 -367 1080
-17 71 -31 107 -32 78 0 -19 -14 -186 -18 -228 -7 -59 -6 -372 0 -456 6 -77
30 -274 40 -324 19 -97 30 -146 51 -222 58 -208 148 -413 244 -553 28 -41 48
-75 46 -75 -14 0 -68 29 -126 67 -178 116 -317 308 -429 590 -58 148 -113 345
-126 458 -3 28 -8 66 -10 85 -2 19 -7 60 -10 90 -11 100 -54 363 -80 490 -126
610 -348 1094 -634 1381 -104 104 -198 176 -267 205 l-35 15 14 -28 c160 -309
283 -666 327 -943 6 -41 14 -86 16 -100 9 -43 12 -333 5 -365 -6 -25 -8 -19
-14 36 -30 280 -295 914 -648 1555 -49 89 -89 165 -89 168 0 16 302 -58 452
-110 122 -43 315 -133 413 -194 226 -139 420 -340 516 -537 23 -46 42 -83 43
-83 2 0 2 27 0 60 -7 153 -100 344 -268 550 -127 156 -359 380 -543 524 -61
47 -75 66 -52 66 19 0 201 106 274 159 146 106 264 242 324 372 29 61 65 179
57 186 -2 2 -20 -18 -41 -44 -137 -173 -369 -331 -585 -401 -142 -46 -218 -56
-395 -57 -93 0 -188 3 -211 7 -91 15 -122 21 -193 39 -235 62 -396 217 -457
444 -23 83 -27 305 -9 420 34 210 101 428 199 648 14 31 25 57 23 57 -1 0 -54
-28 -117 -61z"/>
<path d="M4834 17183 c-114 -184 -294 -423 -469 -623 -164 -187 -232 -259
-496 -521 l-258 -256 -75 -152 c-42 -84 -99 -205 -127 -269 -28 -64 -59 -135
-69 -157 -66 -150 -187 -493 -250 -709 -29 -101 -103 -399 -115 -461 -2 -16
-7 -43 -10 -60 -34 -186 -37 -203 -59 -380 -27 -213 -31 -285 -31 -590 0 -268
7 -441 20 -515 3 -14 7 -47 9 -75 12 -129 53 -350 98 -530 47 -193 85 -311
155 -490 74 -189 216 -474 246 -492 7 -4 8 0 3 13 -4 10 -28 87 -52 169 -85
284 -140 540 -173 805 -11 91 -23 188 -26 215 -13 102 -13 619 1 770 74 825
353 1627 792 2275 82 121 86 125 77 75 -11 -64 -13 -73 -34 -200 -11 -66 -23
-140 -26 -165 -5 -44 -13 -102 -20 -150 -2 -14 -7 -52 -10 -85 -4 -33 -8 -71
-10 -85 -2 -14 -7 -65 -10 -115 -4 -49 -8 -104 -10 -121 -24 -212 -23 -774 1
-1079 63 -801 253 -1547 579 -2265 64 -142 209 -424 266 -519 22 -34 39 -64
39 -66 0 -18 238 -377 346 -520 140 -188 378 -464 390 -453 2 3 -26 43 -63 89
-441 558 -726 1100 -807 1535 -9 43 -18 93 -21 109 -12 59 -15 321 -4 395 12
81 51 216 79 267 l17 33 74 -48 c109 -71 181 -132 305 -256 136 -137 204 -215
326 -376 173 -229 397 -581 541 -850 31 -58 69 -119 84 -136 161 -182 226
-266 336 -435 69 -106 108 -172 186 -309 61 -107 208 -407 281 -570 266 -601
522 -1357 720 -2135 62 -243 63 -243 62 -76 -2 474 -288 1874 -747 3658 -42
164 -46 176 -51 171 -2 -2 5 -51 16 -108 27 -156 28 -163 45 -320 23 -227 24
-235 37 -570 0 -3 0 -66 -1 -140 l-2 -135 -35 114 c-134 437 -436 997 -852
1584 -139 195 -564 745 -602 777 -3 3 -46 52 -96 110 -104 121 -180 231 -286
415 -321 555 -507 1088 -582 1670 -21 163 -28 520 -14 700 21 268 84 568 161
775 20 52 34 96 32 98 -2 2 -16 -20 -31 -49 -54 -108 -139 -234 -202 -300 -35
-38 -69 -69 -74 -69 -9 0 -4 133 7 200 2 14 7 45 9 70 13 116 58 370 91 510
24 101 47 199 50 218 42 189 199 716 324 1087 28 82 49 151 47 152 -2 2 -25
-31 -52 -74z"/>
<path d="M5002 15243 c-47 -187 -62 -261 -96 -468 -19 -110 -39 -282 -51 -435
-5 -55 -5 -463 0 -507 41 -415 120 -674 278 -917 46 -69 169 -223 211 -261 19
-18 130 -156 223 -280 293 -388 605 -907 843 -1400 48 -99 91 -190 95 -203 4
-13 9 -21 12 -18 25 24 24 645 -1 796 -2 14 -10 66 -16 115 -7 50 -14 99 -16
110 -4 22 -15 80 -20 108 -2 10 -6 28 -10 39 -10 33 11 13 42 -40 72 -124 319
-493 462 -692 288 -398 542 -700 834 -995 343 -345 611 -552 914 -703 118 -60
293 -124 369 -138 l40 -7 -55 38 c-500 345 -1005 889 -1337 1440 -258 428
-421 858 -518 1370 -56 300 -67 779 -24 1105 5 41 12 93 15 115 27 205 114
568 181 753 8 24 13 45 10 48 -15 15 -298 -251 -427 -401 -241 -281 -405 -561
-504 -863 -22 -66 -31 -82 -44 -78 -10 3 -44 12 -78 20 -228 58 -453 195 -660
401 -181 180 -307 374 -417 640 -94 228 -171 569 -192 855 -4 52 -9 104 -11
115 -3 11 -5 129 -5 263 0 133 -2 242 -3 242 -1 0 -21 -75 -44 -167z"/>
<path d="M27907 14126 c64 -68 148 -188 206 -296 40 -73 117 -251 117 -269 0
-8 -12 -10 -37 -6 -144 24 -273 85 -354 166 -32 32 -59 57 -59 56 0 -2 9 -30
20 -63 43 -122 61 -243 42 -269 -4 -6 -62 -11 -132 -11 -97 -1 -158 -9 -275
-33 -130 -27 -398 -100 -409 -112 -2 -2 -6 -42 -10 -88 -17 -226 -120 -462
-267 -612 -17 -17 -29 -32 -27 -34 2 -2 44 -30 93 -63 99 -67 171 -133 217
-200 33 -48 67 -137 69 -179 1 -21 3 -23 6 -8 30 121 104 287 161 365 39 52
123 139 157 163 28 20 29 20 15 2 -8 -11 -18 -22 -21 -25 -4 -3 -29 -41 -56
-85 -91 -146 -140 -328 -150 -551 l-6 -142 99 -30 c54 -17 178 -54 274 -83 96
-29 177 -54 179 -56 11 -8 -56 -88 -111 -134 -244 -203 -752 -414 -1410 -584
-72 -19 -133 -37 -137 -40 -18 -19 320 33 529 81 493 114 1026 336 1523 635
217 131 459 298 622 430 63 51 71 61 72 92 1 39 72 182 107 216 12 11 39 35
60 53 77 64 145 208 161 338 l7 56 -52 24 c-72 34 -168 132 -213 218 -88 166
-282 380 -894 985 -161 158 -226 211 -116 93z"/>
<path d="M16391 13458 c-69 -112 -260 -322 -391 -429 -307 -250 -710 -405
-1105 -425 -66 -4 -122 -8 -124 -10 -14 -12 116 -91 209 -128 66 -25 215 -62
237 -58 30 6 19 -23 -30 -81 -124 -146 -223 -368 -253 -562 l-7 -48 64 37
c290 167 615 261 1079 311 288 31 826 26 1170 -10 25 -3 67 -7 94 -10 62 -6
360 -43 406 -51 19 -3 95 -17 169 -30 74 -13 136 -22 139 -20 9 9 -388 155
-643 236 -494 158 -1108 294 -1515 336 -36 4 -72 8 -80 10 -8 1 -22 3 -30 3
-8 1 14 27 50 58 269 239 462 513 554 787 28 84 32 124 7 84z"/>
<path d="M7466 13256 c3 -38 7 -79 9 -90 2 -12 6 -43 10 -71 5 -43 44 -281 60
-370 162 -892 516 -1742 988 -2370 139 -184 225 -283 402 -461 112 -112 165
-161 315 -288 241 -204 626 -428 935 -545 15 -6 0 -12 -57 -25 -168 -37 -291
-50 -483 -50 -121 0 -321 11 -334 18 -3 2 -35 7 -70 10 -36 4 -67 9 -70 10 -3
2 -22 7 -41 10 -269 42 -681 178 -963 317 l-98 48 22 -30 c23 -33 369 -383
434 -439 22 -19 69 -60 105 -90 36 -30 67 -57 70 -60 17 -17 161 -128 255
-196 364 -264 757 -480 1165 -641 331 -131 786 -255 1015 -277 72 -7 60 -1
-95 49 -195 62 -391 163 -552 283 -97 72 -271 251 -330 339 -27 39 -48 73 -48
76 0 7 289 -55 490 -104 714 -175 1329 -412 1790 -691 121 -73 267 -174 320
-221 17 -16 33 -27 35 -25 2 2 -12 46 -32 98 -62 165 -93 287 -117 460 -16
111 -18 318 -5 410 5 36 11 79 14 97 2 17 13 69 24 115 69 293 224 584 436
821 52 59 93 107 90 107 -4 0 -43 -28 -88 -62 -188 -143 -401 -379 -554 -615
-40 -61 -73 -115 -73 -119 0 -4 -6 -15 -14 -23 -19 -21 -148 -283 -171 -346
-10 -27 -22 -54 -25 -60 -4 -5 -13 -27 -19 -47 -7 -21 -14 -38 -15 -38 -1 0
-29 26 -62 58 -117 112 -317 203 -617 281 l-108 28 71 42 c236 141 552 462
872 886 110 146 318 447 318 461 0 4 -28 -21 -62 -57 -160 -163 -426 -326
-808 -493 -85 -37 -164 -72 -175 -77 -64 -28 -316 -122 -461 -172 l-101 -35
-99 97 c-163 160 -300 263 -504 380 l-117 67 126 -1 c272 -3 488 29 613 90 54
26 104 62 97 70 -3 2 -81 27 -174 55 -541 163 -1031 415 -1510 775 -374 282
-749 652 -1068 1054 -223 281 -451 622 -624 931 -125 225 -294 573 -334 690
-6 16 -7 0 -3 -44z"/>
<path d="M19973 11570 c-243 -26 -480 -108 -653 -224 -93 -63 -237 -206 -206
-206 2 0 39 16 82 36 150 68 389 139 569 169 120 19 369 25 513 12 185 -18
447 -84 558 -142 27 -14 23 -14 -59 -14 -48 0 -90 -2 -94 -4 -5 -3 -25 -8 -46
-11 -51 -8 -131 -43 -153 -67 -17 -19 -14 -19 122 -21 76 0 150 -2 164 -3 14
-1 61 -5 105 -8 113 -9 149 -14 312 -43 102 -18 376 -95 438 -123 11 -5 58
-26 105 -47 184 -81 351 -188 475 -305 93 -89 109 -86 49 9 -48 75 -186 208
-284 273 l-25 17 30 -3 c167 -14 425 -106 591 -211 301 -188 702 -330 1136
-401 136 -22 456 -21 763 2 22 2 87 6 145 10 58 3 116 8 130 10 14 3 57 7 95
10 66 5 116 10 195 20 19 2 60 7 90 10 116 13 389 57 531 86 343 69 615 163
776 268 87 56 172 149 116 126 -376 -154 -839 -276 -1178 -310 -33 -3 -71 -8
-84 -10 -136 -23 -733 -24 -857 -1 -10 2 -46 7 -79 10 -92 11 -265 36 -310 46
-22 5 -57 11 -78 14 -155 24 -492 120 -752 214 -456 166 -943 426 -1310 700
l-50 37 19 -30 c78 -124 252 -283 521 -474 150 -107 147 -105 115 -93 -231 90
-535 213 -645 262 -451 201 -891 337 -1255 389 -41 6 -93 13 -115 17 -67 9
-435 12 -512 4z"/>
<path d="M16935 10731 c-767 -268 -1532 -694 -2061 -1146 -126 -108 -154 -134
-297 -278 -263 -266 -451 -515 -616 -819 -46 -85 -58 -115 -102 -258 -79 -252
-129 -486 -129 -603 0 -48 -2 -56 -13 -45 -136 142 -232 394 -272 718 -4 30
-9 62 -10 71 -21 113 -21 713 0 842 2 12 6 58 10 103 3 44 12 136 20 205 18
152 18 152 -3 109 -127 -256 -272 -782 -322 -1165 -18 -145 -20 -157 -36 -370
-7 -92 -7 -461 0 -550 14 -166 17 -205 27 -285 33 -270 95 -555 180 -818 21
-68 39 -125 39 -128 0 -17 -197 113 -338 223 -150 117 -227 187 -417 377 -190
190 -236 241 -397 434 -61 72 -113 130 -115 128 -2 -2 10 -27 27 -55 16 -29
30 -54 30 -57 0 -2 39 -66 86 -142 457 -730 1069 -1401 1709 -1875 72 -53 135
-100 140 -105 6 -4 57 -39 115 -77 58 -38 116 -76 130 -85 75 -50 297 -173
450 -249 257 -128 498 -224 745 -296 78 -23 79 -23 50 -3 -61 43 -174 169
-223 248 -77 125 -122 258 -138 411 -6 52 -4 60 7 51 8 -7 43 -33 79 -59 218
-157 412 -421 528 -718 105 -271 147 -534 143 -889 l-1 -58 -37 33 c-61 53
-177 125 -257 158 -73 30 -239 75 -256 69 -5 -2 26 -57 70 -124 320 -491 538
-997 594 -1379 15 -101 13 -296 -2 -365 -6 -25 -11 -84 -11 -133 -1 -159 -58
-367 -144 -527 -100 -187 -236 -348 -452 -534 -26 -22 -28 -25 -10 -26 40 0
162 41 251 84 216 107 422 292 626 563 56 75 73 108 93 174 31 101 61 264 73
389 10 95 8 360 -3 435 -9 70 -15 109 -21 145 -12 69 -55 231 -80 302 -58 159
-17 339 93 408 25 16 50 27 55 24 11 -7 102 -147 158 -243 108 -186 208 -418
227 -525 2 -16 9 -38 14 -50 17 -40 1 55 -87 524 -21 113 -116 598 -130 665
-3 11 -9 40 -14 65 -118 594 -356 1485 -454 1705 -8 17 -28 63 -45 103 -34 78
-63 128 -166 287 -155 239 -281 532 -341 788 -10 44 -21 72 -25 65 -4 -7 -6
-15 -4 -19 3 -3 0 -33 -5 -65 -6 -32 -13 -75 -16 -94 -3 -19 -18 -86 -35 -149
-63 -245 -170 -428 -297 -510 -46 -29 -176 -70 -188 -59 -5 6 -10 31 -18 88
-2 19 -11 87 -20 150 -19 149 -25 206 -51 475 -22 231 -29 426 -30 795 0 332
7 566 20 641 2 13 6 51 9 84 30 334 120 691 239 945 20 41 45 99 57 129 11 30
48 108 81 173 334 667 899 1229 1542 1533 89 42 110 55 90 55 -5 0 -57 -18
-118 -39z"/>
<path d="M7087 10273 c46 -223 122 -501 210 -763 242 -722 587 -1353 985
-1800 109 -123 197 -270 377 -630 424 -851 687 -1689 737 -2350 4 -52 8 -102
10 -110 1 -8 3 -78 4 -155 0 -79 4 -134 9 -125 4 8 18 76 30 150 12 74 25 149
28 165 7 42 9 61 18 130 4 33 9 62 10 65 2 3 6 41 10 85 4 44 9 82 10 85 2 3
7 44 10 90 4 47 9 92 10 100 9 50 20 283 20 450 0 245 -10 371 -39 501 l-13
57 61 -45 c55 -41 196 -115 301 -158 36 -14 29 -5 -77 102 -254 256 -452 555
-581 880 l-36 92 -184 183 c-192 192 -329 350 -473 545 -117 159 -118 159 -33
68 398 -429 756 -714 1024 -814 153 -57 517 -382 785 -700 180 -214 395 -535
511 -763 24 -48 45 -85 47 -84 5 6 -51 173 -104 307 -215 545 -564 1122 -992
1638 -53 64 -98 118 -101 121 -3 3 -16 17 -29 32 l-24 26 86 -29 c159 -53 362
-98 521 -114 33 -4 71 -8 85 -11 32 -6 389 -6 415 0 11 3 33 5 49 5 38 1 31 8
-17 15 -235 37 -605 144 -925 267 -164 64 -192 76 -412 181 -673 321 -1263
783 -1708 1336 -230 287 -456 661 -600 995 -12 26 -23 47 -25 47 -2 0 3 -30
10 -67z"/>
<path d="M16520 10039 c-524 -377 -962 -981 -1163 -1605 -81 -250 -134 -518
-153 -779 -14 -178 -8 -542 11 -678 2 -17 11 -84 20 -147 20 -148 58 -334 96
-480 17 -63 33 -125 36 -137 10 -45 20 -22 12 30 -4 28 -10 72 -14 97 -11 79
-14 462 -5 534 18 130 53 235 99 295 19 24 19 24 46 7 15 -10 62 -53 104 -96
277 -280 573 -823 843 -1545 80 -214 265 -783 297 -912 5 -21 26 -96 46 -168
97 -348 189 -730 249 -1040 53 -280 64 -341 81 -470 9 -66 18 -131 20 -145 2
-14 6 -59 10 -100 4 -41 9 -88 11 -105 18 -112 0 -507 -25 -553 -5 -8 -24 11
-56 55 -131 179 -246 308 -340 382 -82 65 -107 73 -69 24 232 -304 324 -647
243 -908 -42 -137 -93 -221 -215 -354 -28 -31 -82 -92 -120 -136 -79 -92 -291
-304 -383 -385 -453 -394 -882 -622 -1319 -700 l-107 -19 85 0 c292 1 727 116
1077 285 519 250 954 644 1271 1152 113 179 274 499 310 613 27 86 45 278 44
489 0 427 -80 891 -227 1313 -19 53 -32 97 -30 97 9 0 133 -188 163 -247 39
-75 82 -205 82 -245 0 -16 4 -27 9 -24 9 6 -32 256 -70 431 -11 55 -23 111
-26 125 -3 19 -75 303 -98 390 -159 591 -431 1298 -717 1862 -228 451 -518
923 -798 1303 -38 52 -76 111 -85 131 -24 57 -63 219 -74 304 -10 77 -7 387 3
450 42 241 99 429 189 628 140 311 372 651 641 943 70 76 90 99 85 99 -2 0
-42 -28 -89 -61z"/>
<path d="M11437 7497 c4 -7 62 -80 128 -162 146 -183 379 -494 502 -670 90
-130 243 -362 243 -369 0 -3 21 -40 46 -83 81 -136 198 -403 178 -403 -5 0
-167 133 -184 150 -19 21 -373 295 -458 356 -609 432 -1078 687 -1522 829 -63
20 -121 38 -128 41 -7 2 -10 -1 -7 -6 3 -6 10 -10 15 -10 6 0 85 -45 177 -101
254 -153 592 -387 803 -556 76 -61 160 -129 180 -146 14 -12 54 -46 90 -76
140 -119 231 -203 419 -386 608 -595 1086 -1240 1437 -1945 245 -493 385 -886
519 -1467 10 -40 19 -73 22 -73 4 0 -4 233 -12 320 -2 25 -7 77 -10 115 -3 39
-8 86 -10 105 -2 19 -7 62 -10 95 -4 33 -8 71 -10 85 -2 14 -13 95 -25 180
-27 193 -89 512 -136 690 -28 108 -98 328 -149 475 -6 16 -3 15 16 -6 13 -15
47 -51 74 -81 50 -54 157 -174 192 -214 10 -12 40 -47 68 -79 27 -32 101 -121
163 -199 62 -78 118 -148 125 -156 14 -18 101 -135 178 -240 100 -136 270
-393 356 -540 298 -505 443 -901 498 -1365 13 -105 14 -441 1 -475 -3 -8 -7
-31 -10 -50 -32 -219 -135 -446 -268 -586 -28 -30 -47 -54 -43 -54 20 0 140
97 206 168 266 282 393 678 375 1167 -6 165 -9 201 -25 312 l-8 52 31 -27 c18
-15 52 -51 76 -80 25 -29 50 -58 55 -65 54 -63 102 -167 121 -262 l14 -70 -5
100 c-18 405 -156 952 -357 1415 -190 437 -508 933 -810 1265 -15 16 -25 31
-23 33 2 3 22 -3 44 -12 74 -29 265 -76 456 -111 82 -15 284 -35 400 -40 147
-6 154 -11 -70 62 -227 74 -601 251 -865 409 -63 38 -122 72 -130 75 -92 40
-908 630 -980 709 -3 3 -27 23 -55 45 -340 273 -968 877 -1348 1297 -42 47
-87 96 -100 110 -12 13 -51 58 -87 98 -36 41 -85 97 -110 125 -25 27 -91 105
-148 173 -92 109 -129 147 -105 109z"/>
</g>
</svg>
