<svg width="29" height="33" viewBox="0 0 29 33" fill="none" xmlns="http://www.w3.org/2000/svg">
<path fill-rule="evenodd" clip-rule="evenodd" d="M3.28756 0.258057H24.777C26.5945 0.258057 28.0646 1.75873 28.0646 3.62775V33L24.6166 29.8895L22.6788 28.0614L20.6208 26.1106L21.4761 29.1392H3.28756C1.47005 29.1392 0 27.6385 0 25.7695V3.62775C0 1.75873 1.48341 0.258057 3.28756 0.258057ZM17.5337 20.3125C18.0148 20.9264 18.5894 21.6358 18.5894 21.6358C22.1309 21.5267 23.494 19.1529 23.4673 19.1665C23.4673 13.8869 21.1553 9.6168 21.1553 9.6168C18.8433 7.84328 16.6516 7.89785 16.6516 7.89785L16.4244 8.15706C19.1507 9.00289 20.4203 10.2307 20.4203 10.2307C18.7498 9.30303 17.1194 8.83918 15.5959 8.66183C14.4466 8.5254 13.3373 8.55269 12.3618 8.68911C12.2787 8.68911 12.2062 8.69986 12.1256 8.71181C12.1154 8.71333 12.105 8.71486 12.0945 8.7164C11.5332 8.77097 10.1701 8.98925 8.45946 9.75323C7.85807 10.0397 7.51061 10.2307 7.51061 10.2307C7.51061 10.2307 8.84702 8.93468 11.7337 8.08885L11.5733 7.89785C11.5733 7.89785 9.38158 7.84328 7.06959 9.6168C7.06959 9.6168 4.75761 13.9005 4.75761 19.1665C4.75761 19.1665 6.10738 21.5403 9.64886 21.6495C9.64886 21.6495 10.2369 20.9128 10.718 20.2852C8.68665 19.6577 7.91153 18.348 7.91153 18.348C7.91153 18.348 8.0719 18.4571 8.36591 18.6208C8.37927 18.6481 8.406 18.6618 8.43273 18.6754C8.45946 18.6891 8.48285 18.7027 8.50624 18.7163C8.52962 18.73 8.55301 18.7436 8.57973 18.7573C8.98066 18.9892 9.38158 19.1665 9.75577 19.3166C10.4106 19.5895 11.1991 19.8487 12.1079 20.026C13.3106 20.2579 14.7272 20.3398 16.2641 20.0397C17.0125 19.9032 17.7876 19.6713 18.5894 19.3303C19.1507 19.112 19.7788 18.7982 20.4337 18.3616C20.4337 18.3616 19.6318 19.7122 17.5337 20.3125ZM10.1567 15.9469C10.1567 15.1147 10.7581 14.4326 11.5198 14.4326C12.2816 14.4326 12.8963 15.1147 12.8829 15.9469C12.8829 16.7791 12.2816 17.4613 11.5198 17.4613C10.7714 17.4613 10.1567 16.7791 10.1567 15.9469ZM15.0346 15.9469C15.0346 15.1147 15.6359 14.4326 16.3977 14.4326C17.1595 14.4326 17.7608 15.1147 17.7608 15.9469C17.7608 16.7791 17.1595 17.4613 16.3977 17.4613C15.6493 17.4613 15.0346 16.7791 15.0346 15.9469Z" fill="currentColor"/>
</svg>
