<svg width="33" height="33" viewBox="0 0 33 33" fill="none" xmlns="http://www.w3.org/2000/svg">
<path fill-rule="evenodd" clip-rule="evenodd" d="M16.4356 0.258057C7.40901 0.258057 0.0645752 7.60249 0.0645752 16.629C0.0645752 25.6556 7.40901 33 16.4356 33C25.4621 33 32.8065 25.6556 32.8065 16.629C32.8065 7.60249 25.4621 0.258057 16.4356 0.258057ZM16.4356 30.9537C8.53656 30.9537 2.11095 24.526 2.11095 16.629C2.11095 8.73004 8.53656 2.30443 16.4356 2.30443C24.3325 2.30443 30.7602 8.73004 30.7602 16.629C30.7602 24.526 24.3325 30.9537 16.4356 30.9537ZM16.4356 4.35083C15.5761 4.35083 14.7371 4.44087 13.9267 4.60867C15.4165 6.72053 16.7691 8.91833 17.9601 11.1959C20.2132 10.1462 22.3332 8.79146 24.2691 7.17483C22.1429 5.41085 19.413 4.35083 16.4356 4.35083ZM18.8462 13.0152C21.3059 11.8652 23.6224 10.3938 25.7281 8.61963C27.5126 10.6865 28.6135 13.3549 28.6954 16.2813C25.8919 15.8167 23.0638 15.8679 20.3462 16.4265C19.8837 15.2724 19.3844 14.1367 18.8462 13.0152ZM11.8721 5.23706C8.1866 6.71454 5.39126 9.92326 4.48267 13.8625C8.45672 14.0324 12.3899 13.3694 16.0508 11.9717C14.8209 9.63676 13.4274 7.38575 11.8721 5.23706ZM5.78831 15.9579C9.63754 15.9579 13.4233 15.2048 16.9676 13.8235C17.4608 14.8487 17.9233 15.8842 18.351 16.936C13.9636 18.2539 9.99975 20.8773 7.05092 24.5383C5.24807 22.4019 4.15735 19.6434 4.15735 16.6291C4.15735 16.4474 4.16946 16.2691 4.18157 16.0908L4.18158 16.0907C4.18597 16.026 4.19037 15.9613 4.19418 15.8965L4.37205 15.9061C4.8448 15.932 5.31736 15.9579 5.78831 15.9579ZM21.0972 18.3644C22.0733 21.0861 22.8386 23.8835 23.3993 26.7361C26.166 24.8269 28.0978 21.8126 28.5828 18.3296C26.0739 17.8856 23.5385 17.906 21.0972 18.3644ZM8.50378 25.9932C11.2357 22.5205 14.9621 20.0444 19.0876 18.8391C20.1435 21.7429 20.9621 24.7347 21.5249 27.792C19.9737 28.5021 18.2527 28.9073 16.4355 28.9073C13.4089 28.9073 10.6443 27.8084 8.50378 25.9932Z" fill="currentColor"/>
</svg>
