<svg width="34" height="33" viewBox="0 0 34 33" fill="none" xmlns="http://www.w3.org/2000/svg">
<path d="M16.9174 0.258057C7.87857 0.258057 0.548462 7.61681 0.548462 16.6945C0.548462 23.9551 5.23875 30.1146 11.7462 32.2899C12.5648 32.4414 12.8635 31.9339 12.8635 31.498C12.8635 31.1071 12.8492 30.0737 12.841 28.7026C8.28785 29.6951 7.32605 26.4987 7.32605 26.4987C6.58322 24.5997 5.50887 24.0942 5.50887 24.0942C4.02116 23.0751 5.61937 23.0956 5.61937 23.0956C7.26261 23.2122 8.12618 24.79 8.12618 24.79C9.58729 27.3009 11.959 26.5765 12.8922 26.1549C13.0395 25.0928 13.4631 24.3684 13.9317 23.9571C10.2974 23.5417 6.47476 22.1317 6.47476 15.8351C6.47476 14.0404 7.11323 12.5731 8.16097 11.4231C7.99112 11.0077 7.43042 9.33577 8.32059 7.07453C8.32059 7.07453 9.69575 6.63251 12.8226 8.75869C14.1282 8.39444 15.5279 8.21231 16.9215 8.20617C18.311 8.21436 19.7127 8.39444 21.0204 8.76074C24.1452 6.63456 25.5183 7.07657 25.5183 7.07657C26.4105 9.33986 25.8498 11.0097 25.682 11.4251C26.7318 12.5752 27.3641 14.0424 27.3641 15.8371C27.3641 22.1502 23.5374 23.5396 19.8908 23.9469C20.4781 24.4544 21.002 25.4571 21.002 26.9898C21.002 29.1876 20.9815 30.9598 20.9815 31.498C20.9815 31.938 21.2762 32.4496 22.107 32.2879C28.6042 30.1105 33.2904 23.953 33.2904 16.6945C33.2904 7.61681 25.9603 0.258057 16.9174 0.258057Z" fill="currentColor"/>
</svg>
