<svg width="34" height="33" viewBox="0 0 34 33" fill="none" xmlns="http://www.w3.org/2000/svg">
<path fill-rule="evenodd" clip-rule="evenodd" d="M23.2845 0.258057H11.0063C5.35624 0.258057 0.774414 4.83989 0.774414 10.4899V22.7682C0.774414 28.4182 5.35624 33 11.0063 33H23.2845C28.9346 33 33.5164 28.4182 33.5164 22.7682V10.4899C33.5164 4.83989 28.9346 0.258057 23.2845 0.258057ZM30.4468 22.7682C30.4468 26.7177 27.234 29.9305 23.2845 29.9305H11.0063C7.05678 29.9305 3.84397 26.7177 3.84397 22.7682V10.4899C3.84397 6.54042 7.05678 3.32762 11.0063 3.32762H23.2845C27.234 3.32762 30.4468 6.54042 30.4468 10.4899V22.7682ZM17.1454 8.4436C12.625 8.4436 8.9599 12.1087 8.9599 16.6291C8.9599 21.1495 12.625 24.8146 17.1454 24.8146C21.6658 24.8146 25.3309 21.1495 25.3309 16.6291C25.3309 12.1087 21.6658 8.4436 17.1454 8.4436ZM17.1454 21.745C14.3255 21.745 12.0295 19.449 12.0295 16.6291C12.0295 13.8071 14.3255 11.5132 17.1454 11.5132C19.9653 11.5132 22.2613 13.8071 22.2613 16.6291C22.2613 19.449 19.9653 21.745 17.1454 21.745ZM27.0356 7.82973C27.0356 8.43211 26.5473 8.92044 25.9449 8.92044C25.3425 8.92044 24.8542 8.43211 24.8542 7.82973C24.8542 7.22734 25.3425 6.73901 25.9449 6.73901C26.5473 6.73901 27.0356 7.22734 27.0356 7.82973Z" fill="currentColor"/>
</svg>
