<svg width="34" height="33" viewBox="0 0 34 33" fill="none" xmlns="http://www.w3.org/2000/svg">
<path fill-rule="evenodd" clip-rule="evenodd" d="M7.45284 3.83921C7.45284 5.81703 5.8495 7.42036 3.87168 7.42036C1.89386 7.42036 0.290527 5.81703 0.290527 3.83921C0.290527 1.86139 1.89386 0.258057 3.87168 0.258057C5.8495 0.258057 7.45284 1.86139 7.45284 3.83921ZM7.61245 10.49H0.290527V33.0001H7.61245V10.49ZM27.4797 10.729L27.4796 10.729C27.4286 10.7121 27.3777 10.6953 27.3231 10.6803C27.2249 10.6578 27.1267 10.6394 27.0264 10.623C26.6376 10.5452 26.2119 10.49 25.7126 10.49C21.4439 10.49 18.7365 13.5943 17.8443 14.7935V10.49H10.5224V33.0001H17.8443V20.7219C17.8443 20.7219 23.3777 13.0152 25.7126 18.6755V33.0001H33.0325V17.8099C33.0325 14.4088 30.7017 11.5746 27.5564 10.754C27.5305 10.7458 27.5051 10.7374 27.4797 10.729Z" fill="currentColor"/>
</svg>
