<svg width="34" height="33" viewBox="0 0 34 33" fill="none" xmlns="http://www.w3.org/2000/svg">
<path d="M17.1775 0.258057C8.15095 0.258057 0.806519 7.60249 0.806519 16.629C0.806519 25.6556 8.15095 33 17.1775 33C26.2041 33 33.5485 25.6556 33.5485 16.629C33.5485 7.60249 26.2041 0.258057 17.1775 0.258057ZM24.6877 23.8896C24.4872 24.174 24.172 24.3255 23.8507 24.3255C23.6461 24.3255 23.4415 24.2661 23.2634 24.1392C19.4265 21.4421 13.0438 21.2927 8.73417 22.2975C8.18779 22.4264 7.63322 22.0826 7.50634 21.5322C7.37947 20.9817 7.71917 20.4312 8.27169 20.3023C13.009 19.2054 20.0895 19.406 24.438 22.4653C24.9005 22.7907 25.011 23.4271 24.6877 23.8896ZM26.685 19.8971C26.4844 20.1754 26.1713 20.3227 25.8541 20.3227C25.6454 20.3227 25.4387 20.2614 25.2566 20.1304C20.8057 16.936 15.3378 16.142 8.04045 17.6318C7.48997 17.7402 6.94564 17.3882 6.83309 16.8337C6.71849 16.2812 7.07661 15.7389 7.62913 15.6263C15.522 14.0158 21.5015 14.9162 26.4496 18.4667C26.908 18.7982 27.0144 19.4367 26.685 19.8971ZM28.7027 14.5356C28.5042 14.8282 28.1809 14.9838 27.8555 14.9838C27.657 14.9838 27.4564 14.9265 27.2805 14.8078C21.6386 10.979 13.0622 10.9606 7.51044 12.9251C6.97838 13.1093 6.39312 12.833 6.20485 12.2989C6.01659 11.7669 6.29489 11.1816 6.829 10.9933C12.8678 8.85896 22.2259 8.90398 28.4326 13.1134C28.8991 13.4306 29.0178 14.067 28.7027 14.5356Z" fill="currentColor"/>
</svg>
