<svg width="33" height="27" viewBox="0 0 33 27" fill="none" xmlns="http://www.w3.org/2000/svg">
<path d="M32.7744 3.38374C31.5569 3.91785 30.2595 4.27187 28.9068 4.44377C30.2983 3.61294 31.3604 2.30735 31.8597 0.73369C30.5623 1.50722 29.1299 2.0536 27.6033 2.35851C26.3713 1.04679 24.6156 0.234375 22.7001 0.234375C18.9839 0.234375 15.9921 3.25073 15.9921 6.94853C15.9921 7.48058 16.0372 7.99218 16.1477 8.47921C10.5672 8.20705 5.6293 5.53244 2.31213 1.45811C1.73301 2.46288 1.39331 3.61294 1.39331 4.85099C1.39331 7.17567 2.59044 9.23637 4.37488 10.4294C3.29644 10.4089 2.23846 10.0958 1.34215 9.60267C1.34215 9.62314 1.34215 9.64974 1.34215 9.67634C1.34215 12.9383 3.66888 15.6477 6.72002 16.2718C6.17364 16.4212 5.57814 16.4928 4.96014 16.4928C4.5304 16.4928 4.09657 16.4683 3.68934 16.3782C4.55905 19.0365 7.02698 20.9907 9.96147 21.0542C7.67772 22.8407 4.77801 23.9171 1.63887 23.9171C1.0884 23.9171 0.560435 23.8925 0.0324707 23.825C3.00585 25.7424 6.52971 26.8372 10.3298 26.8372C22.6817 26.8372 29.4348 16.6054 29.4348 7.73638C29.4348 7.43966 29.4245 7.15316 29.4102 6.86872C30.7424 5.92329 31.8618 4.74254 32.7744 3.38374Z" fill="currentColor"/>
</svg>
