<svg width="34" height="33" viewBox="0 0 34 33" fill="none" xmlns="http://www.w3.org/2000/svg">
<path d="M16.5366 0H16.5283C7.43066 0 0.0324707 7.40025 0.0324707 16.5C0.0324707 20.1094 1.19572 23.4548 3.17366 26.1711L1.11735 32.3008L7.45953 30.2734C10.0686 32.0018 13.1809 33 16.5366 33C25.6343 33 33.0325 25.5977 33.0325 16.5C33.0325 7.40231 25.6343 0 16.5366 0ZM26.1375 23.3001C25.7395 24.4241 24.1596 25.3564 22.8994 25.6286C22.0373 25.8122 20.9112 25.9586 17.1203 24.387C12.2713 22.3781 9.14872 17.4508 8.90535 17.1311C8.67228 16.8114 6.94597 14.5221 6.94597 12.1543C6.94597 9.78656 8.14841 8.63363 8.6331 8.13863C9.03116 7.73231 9.6891 7.54669 10.3202 7.54669C10.5244 7.54669 10.708 7.557 10.873 7.56525C11.3577 7.58588 11.601 7.61475 11.9207 8.37994C12.3188 9.339 13.2882 11.7067 13.4037 11.9501C13.5212 12.1935 13.6388 12.5235 13.4738 12.8432C13.3191 13.1732 13.183 13.3196 12.9396 13.6001C12.6962 13.8806 12.4652 14.0951 12.2218 14.3962C11.9991 14.6582 11.7475 14.9387 12.028 15.4234C12.3085 15.8977 13.2778 17.4797 14.7051 18.7502C16.5469 20.3899 18.0402 20.9137 18.5743 21.1365C18.9724 21.3015 19.4468 21.2623 19.7376 20.9529C20.1068 20.5549 20.5626 19.8949 21.0267 19.2452C21.3567 18.7791 21.7733 18.7213 22.2105 18.8863C22.656 19.041 25.0135 20.2063 25.4982 20.4476C25.9828 20.691 26.3025 20.8065 26.4201 21.0107C26.5356 21.2149 26.5356 22.1739 26.1375 23.3001Z" fill="currentColor"/>
</svg>
