<svg xmlns="http://www.w3.org/2000/svg" viewBox="0 0 500 439">
  <g id="stitch">
    <path
      d="M85.71,306.14a577.14,577.14,0,0,0,.93-81.82,178.25,178.25,0,0,0,40.68,16.34C114.69,266.11,97.4,290.69,85.71,306.14Z"
      style="fill:#3c618e" />
    <path
      d="M422.53,82.89l-2.06-2-2-2q-2.55-2.46-5-4.79c-1.64-1.56-3.25-3.06-4.84-4.53l-1.9-1.74-1.88-1.71-2.12-1.92-1.56-1.39-1.8-1.6h0l-2.65-2.33q-3.06-2.67-5.94-5.11l-1.63-1.38h0c-1.07-.91-2.13-1.79-3.17-2.65l-2.3-1.89-.74-.6L381.38,46c-3.89-3.14-7.42-5.88-10.55-8.24-14.4-11-23.21-16.33-23.25-16.38l-1.21-.74h0l.8-15.89L347.4,0H310.69c-1.13.33-2.37.67-3.74,1l-1.25.33L303,2l-1.45.35L300,2.75l-2.68.61-1.41.31c-1.44.31-2.95.63-4.53,1l-5.63,1.07c-3.78.67-7.91,1.36-12.42,2l-3.45.51-1.78.25c-1.65.24-3.34.47-5.08.69l-1.43.19-2.92.37c-3.4.42-7,.79-10.76,1.21-.19,0-.38,0-.56,0-1.82.19-3.67.38-5.57.56s-3.83.35-5.81.52c-1.4.14-2.83.27-4.28.38s-2.94.22-4.43.31c-2.65.19-5.36.38-8.15.56-2.42.16-4.88.31-7.4.45l-3.8.21-3.9.19-4,.18q-7,.32-14.5.53l-2.16.06q-6.36.18-13.07.28l-2.12,0-2.78,0-6.48.06-7.87,0L25.81,15.14a.17.17,0,0,0-.13-.05h-.05l-.46-.26-.31-.17a4.09,4.09,0,0,1-.39-.22l-.21-.14-.44-.3-.24-.17-.28-.18-.3-.2-.51-.37-.4-.32c-.33-.27-.66-.56-1-.88a1.45,1.45,0,0,1-.37-.37c-.3-.31-.6-.63-.9-1s-.59-.72-.87-1.12c-.79,1-1.55,2.1-2.28,3.22-.15.23-.3.46-.44.69s-.37.6-.55.9-.36.6-.53.9-.32.56-.47.84-.43.79-.64,1.19c-.42.81-.83,1.64-1.22,2.49s-.77,1.72-1.13,2.61S11,24.05,10.66,25s-.66,1.88-1,2.85c-.15.48-.31,1-.45,1.47-.26.88-.51,1.78-.76,2.7-.16.62-.32,1.25-.47,1.88-.25,1.05-.49,2.11-.71,3.2s-.43,2.19-.63,3.32c-.09.56-.19,1.13-.28,1.7-.28,1.77-.52,3.59-.74,5.45q-.51,4.43-.76,9.2h0a4.54,4.54,0,0,0,.46-.5c1-1.12,2.1-2.28,3.22-3.4a68.93,68.93,0,0,1,10.53-9c1.21-.74,2.42-1.49,3.59-2.05l.45-.23A9.76,9.76,0,0,1,24.51,41,15.51,15.51,0,0,1,26,40.5a8.91,8.91,0,0,1,1-.23,9.72,9.72,0,0,1,8.49,1.67,5.2,5.2,0,0,1,.93.84s.09,0,.14.14a.84.84,0,0,1,.14.19l0,0a2.52,2.52,0,0,1,.47.51c.6-.75,1.2-1.47,1.8-2.15l.6-.68c.8-.89,1.59-1.71,2.38-2.49l.94-.91.92-.85c.3-.28.6-.54.9-.8L45.6,35c.57-.49,1.13-.94,1.66-1.36l.77-.61c.5-.39,1-.74,1.42-1.07l1.21-.89,1.1-.78c.76-.53,1.55-1.08,2.39-1.64,1.67-1.11,3.51-2.27,5.53-3.36.4-.22.82-.44,1.24-.65L62.34,24l.93-.42.95-.41c1-.41,2-.79,3-1.13l1-.34c.7-.22,1.42-.42,2.16-.61h0c.37-.09.74-.18,1.11-.25s.76-.17,1.15-.24.77-.15,1.17-.21c.79-.14,1.61-.25,2.44-.34.57-.06,1.14-.12,1.72-.15s1.14-.07,1.72-.08l1.3,0c.55,0,1.11,0,1.67,0s1.19.06,1.79.12,1.14.1,1.72.18l.26,0c.54.06,1.07.14,1.61.24l1.27.22c.53.11,1,.22,1.58.35.28.06.56.13.83.21.56.13,1.12.29,1.68.46l.84.25c.74.24,1.49.52,2.24.8a3.69,3.69,0,0,1,.6.23l.61.28c.55.21,1.1.43,1.64.67l.2.08,1,.44c.32.13.62.28.93.43s.81.38,1.2.58l1.17.6,1,.53.34.2.94.53,1.09.64c2.39,1.45,4.57,3,6.53,4.4l.86.65c.29.21.57.42.84.64l1.58,1.22L119,36.31c1.3,1.06,2.79,2.27,4.38,3.68,1,.84,1.94,1.75,3,2.74l.68.67,1.36,1.42c.34.36.67.73,1,1.12s.8.91,1.18,1.38.79,1,1.18,1.46.74,1,1.11,1.48l.57.82c.8,1.15,1.58,2.36,2.32,3.65.25.43.5.87.74,1.32s.58,1.1.86,1.66h0c.28.56.55,1.14.81,1.72s.53,1.2.78,1.81h0l.21.53.32.85c.11.3.22.61.35.94.28.7.52,1.49.8,2.33,0,.09,0,.19.09.28l.56,2.09a1.7,1.7,0,0,0,.09.33l.09.28v0q.08.28.15.6c.11.41.21.83.3,1.27h0c.1.44.2.9.28,1.38,0,.24.09.48.13.73q.12.73.24,1.53c.07.52.14,1.06.2,1.61s.09.85.12,1.3.07.86.09,1.3a49.17,49.17,0,0,1-.2,8,48.3,48.3,0,0,1-5.55,17.55,61.07,61.07,0,0,1-6.66,9.91c-.67.83-1.34,1.62-2,2.38-.24.27-.47.53-.72.79l-.36.4c-.48.51-1,1-1.44,1.48l-.41.4c-.33.33-.66.65-1,1-.66.62-1.32,1.22-2,1.78l-.82.69-.12.1-.56.44c-.14.12-.27.23-.41.33s-.49.39-.74.58c-1.38,1-2.72,2-4,2.8s-2.47,1.52-3.58,2.12l-.54.29c-.53.29-1,.55-1.52.78l-1,.46c-.15.08-.3.14-.45.21q-2,.89-3.87,1.56l-1.27.45c-1.12.38-2.23.71-3.31,1-.55.15-1.08.29-1.62.41-1.67.4-3.29.7-4.86.94l-1.3.17-.93.11c-.49.06-1,.1-1.44.14l-.6.05c-.56,0-1.11.08-1.65.1l-1.76.07-1.85,0H82.88c-1.19,0-2.32-.08-3.41-.14L78,136l-1.62-.08c-2.15-.09-4.32-.2-6.49-.39-1.09-.09-2.17-.19-3.26-.32q-.81-.09-1.62-.21c-1.08-.15-2.16-.33-3.23-.55-.46-.08-.91-.18-1.36-.29q-.93-.2-1.86-.45c-.72-.19-1.43-.39-2.14-.62s-1.41-.47-2.11-.74l-1.05-.42q-1-.44-2.1-.93c-.69-.33-1.38-.69-2.06-1.08l-1-.6-1-.64c-.34-.22-.67-.44-1-.68q-1-.7-2-1.5l-.84-.68c-.28-.23-.56-.47-.85-.73s-.56-.5-.85-.77-.58-.55-.87-.84c0,1.12.14,2.33.19,3.54.19,4.51.33,9.4.33,14.33,0,3.49-.1,6.93-.24,10.42a10.39,10.39,0,0,1,0,1.12c0,.93,0,1.82-.14,2.75,0,1.3-.14,2.6-.28,3.91,0,.83-.14,1.67-.24,2.51-.14,1.35-.28,2.7-.46,4-.14,1-.28,2-.42,3a13.63,13.63,0,0,1-.24,1.49c-.18,1.16-.42,2.28-.65,3.4s-.51,2.23-.79,3.3c.37.61.75,1.16,1.12,1.68,4,6,6.71,9.31,6.8,9.44l.81.81c.09.08.18.18.28.28l.31.31c.63.63,1.41,1.39,2.33,2.27l1.5,1.39c.54.49,1.1,1,1.71,1.55l.93.83.87.75c.8.69,1.65,1.42,2.55,2.17l1.1.91c.37.31.75.62,1.14.92.68.56,1.38,1.11,2.1,1.67l1.59,1.23c1.29,1,2.66,2,4.09,3.05.47.35,1,.7,1.45,1,1.48,1.06,3,2.12,4.63,3.2s3.27,2.16,5,3.24c1.15.73,2.34,1.46,3.55,2.18.68.42,1.37.82,2.07,1.23l1.65.94c1.85,1,3.72,2.07,5.59,3.06.93.49,1.87,1,2.81,1.45s1.72.86,2.59,1.28c1,.51,2.06,1,3.09,1.48q2.85,1.32,5.71,2.54l1.8.75,1.8.73c1.2.49,2.4,1,3.61,1.4l1.82.68,1.81.64c.5.18,1,.36,1.51.52l2.13.72,2.33.74q2.13.66,4.26,1.26l2.2.61c1,.26,2,.52,2.94.76l2.66.64,2,.45,2.83.59q2.51.5,5,.93c1.67.28,3.34.53,5,.77s3.35.44,5,.61,3.35.33,5,.46,3.35.23,5,.31c.84,0,1.67.07,2.51.09l2.49.06c1.2,0,2.4,0,3.6,0h.14c.91-.18,1.83-.34,2.74-.5l1.57-.25,2.16-.3q.87-.12,1.74-.21c.39-.05.77-.09,1.16-.12l.17,0,1.71-.15c.58-.05,1.15-.09,1.73-.12l2.18-.1,2.18,0q1.65,0,3.33.09l1.12.08c.37,0,.74.06,1.11.1s.75.08,1.12.14c.74.1,1.49.23,2.22.38.53.12,1.07.26,1.61.42s1.07.34,1.59.55a9.7,9.7,0,0,1,.93.41.88.88,0,0,1,.22.1c.23.11.45.23.67.36s.44.26.65.4a7.79,7.79,0,0,1,.65.48l0,0c.21.17.41.35.6.53a8.81,8.81,0,0,1,.7.78l-.36-.33a9.26,9.26,0,0,0-1.8-1.17,10.62,10.62,0,0,0-2-.76c-.3-.09-.61-.16-.92-.23a22,22,0,0,0-2.77-.4,41,41,0,0,0-8.57.37c-3.22.47-6.44,1.12-9.6,1.91,11.78,10.15,33.18,22.06,57.83,6.19q9.06-5.85,16.53-11,2.25-1.53,4.36-3l2.75-1.93,2.63-1.86,3.72-2.67,2.33-1.7c1.89-1.39,3.67-2.7,5.32-3.95l1.92-1.45.92-.71,1.11-.85q3.81-2.94,6.55-5.17l1.19-1,1.6-1.32,1.36-1.15.4-.34,1-.89.56-.5.47-.41.19-.17.43-.39.09-.08.07-.07,0,0,0,0h0l.79-.46c.24-.09,21-8.24,40-52.45-.21-.81-.43-1.6-.65-2.39-.13-.49-.27-1-.41-1.44q-.71-2.48-1.46-4.84-.89-2.79-1.85-5.44c-.32-.88-.64-1.75-1-2.61s-.67-1.71-1-2.55-.69-1.65-1.05-2.46h0c-.54-1.24-1.07-2.49-1.56-3.75q-1.12-2.84-2.08-5.73c-.64-1.92-1.24-3.85-1.78-5.8q-1-3.37-1.71-6.78c-.17-.76-.33-1.51-.49-2.27a166.18,166.18,0,0,1-2.78-19c-.07-.8-.13-1.6-.19-2.39-.52-6.86-.65-13.5-.53-19.69,0-.71,0-1.41.05-2.11s.05-1.38.07-2.06.05-1.37.09-2,.06-1.33.1-2,.07-1.3.11-1.94.09-1.27.13-1.9c.09-1.25.18-2.46.29-3.65,0-.29.05-.59.08-.88s.05-.58.08-.86.05-.52.07-.78l.09-.91c.06-.56.11-1.11.17-1.64s.12-1.06.18-1.58c.09-.77.18-1.53.27-2.25.27-2.22.55-4.22.82-6,.06-.36.11-.7.16-1s.11-.65.16-1,.12-.77.18-1.12.09-.5.13-.73c.15-.9.29-1.67.41-2.28,0-.26.09-.49.13-.69a.29.29,0,0,0,0-.09h0a2.21,2.21,0,0,0,.06-.32c0-.16.06-.29.09-.4s0-.18.05-.24h0l2.27.49,2.3.49c-.1.61-12,58,6.85,101a143.19,143.19,0,0,1,6.06,16.76l.28.88c.23.75.46,1.54.65,2.28l.88,3.31v0q1.25,4.77,2.29,9.62c.23,1.08.46,2.16.67,3.23.29,1.43.57,2.87.83,4.3.13.72.26,1.43.38,2.15q.57,3.22,1.06,6.43c.11.71.22,1.42.32,2.12l.3,2.12c.07.52.15,1.05.22,1.57s.11.88.17,1.32c.22,1.66.42,3.31.61,4.94.12,1.11.25,2.22.36,3.31.06.52.11,1,.16,1.53.13,1.26.25,2.51.36,3.74l.09,1c.07.78.14,1.55.2,2.31,0,.2,0,.4.05.6.08.94.15,1.86.22,2.77s.14,1.94.21,2.89c.2,3.07.37,6,.5,8.79,2.51-7.81,5.31-15.3,8.34-22.47.31-.73.62-1.46.91-2.19.16-.38.32-.77.47-1.16.23-.56.44-1.11.65-1.67.43-1.1.83-2.19,1.22-3.3.29-.82.58-1.64.85-2.47.38-1.12.74-2.25,1.09-3.38.25-.85.51-1.7.75-2.56s.43-1.51.63-2.26c.1-.34.19-.69.28-1,.21-.79.41-1.57.6-2.36.34-1.37.66-2.74,1-4.12.15-.69.29-1.37.43-2.06s.28-1.38.41-2.07.26-1.37.38-2.06q.74-4.14,1.26-8.26c.18-1.37.34-2.75.48-4.12.07-.69.14-1.37.2-2.06s.13-1.37.18-2.05.11-1.37.16-2h0c.06-.88.12-1.75.16-2.63,0-.49.06-1,.08-1.46,0-.68.07-1.36.09-2q.12-3.06.15-6.09c0-3.42,0-6.82-.14-10.17,0-1.35-.12-2.69-.19-4-.14-2.67-.33-5.32-.57-7.93l-.18-1.95c-.06-.65-.13-1.3-.2-1.94q-.49-4.69-1.14-9.23l-.3-2.11a2,2,0,0,1,0-.24c-.17-1.15-.35-2.28-.54-3.41s-.4-2.41-.61-3.59c-.1-.6-.21-1.19-.32-1.77s-.21-1.16-.32-1.74c-.22-1.16-.45-2.3-.68-3.44s-.41-2-.62-3c-.51-2.34-1-4.61-1.55-6.81l-.1-.33c-.68-2.86-1.4-5.7-2.16-8.5s-1.56-5.56-2.4-8.26l-1-3.21c-.28-.89-.56-1.73-.83-2.53q-.19-.59-.39-1.14h0c-.12-.37-.25-.73-.37-1.08-.36-1-.69-2-1-2.77-.07-.21-.15-.41-.22-.6-.34-.93-.62-1.66-.83-2.19-.08-.21-.15-.39-.21-.53a1.12,1.12,0,0,1-.05-.13,2.05,2.05,0,0,1-.08-.2.64.64,0,0,0,0-.12l4.29-1.77c.09.24,2.18,5.3,4.94,14.14h0a283.54,283.54,0,0,0,32.45,17.43c1.36.63,2.72,1.25,4.07,1.85s2.7,1.2,4,1.78,2.67,1.15,4,1.7,2.62,1.1,3.92,1.63l3.85,1.55c3.82,1.52,7.51,2.92,11,4.21C423.91,84.25,423.22,83.56,422.53,82.89Z"
      style="fill:#3c618e" />
    <path
      d="M435.28,0l-2.72.48c-1.82.32-3.67.66-5.53,1-2.79.52-5.6,1.06-8.41,1.63l-2.8.57L413,4.27q-3.33.71-6.57,1.44l-1.61.37c-1.6.37-3.18.75-4.72,1.13L397,8c-.93.24-1.84.48-2.74.73-2.33.64-4.56,1.28-6.63,1.94l-2,.65c-1,.33-1.93.66-2.83,1l-.94.36-1.12.44-1.07.44-1,.44c-.5.23-1,.45-1.44.68a23.76,23.76,0,0,0-3,1.7l-.48.34c-.32.23-.6.46-.86.68s-.25.23-.36.35a5.42,5.42,0,0,0-.61.68,4.71,4.71,0,0,0-1,3.59,43,43,0,0,1-.32,9.67h-.05l-1.82-1.37c-3.61-2.71-6.76-5-9.39-6.8l-1.19-.81c-.41-.29-.8-.56-1.18-.81l-1.46-1-.47-.31-1.49-1c-.17-.11-.34-.23-.5-.32l-1.26-.81-.54-.34L352.06,0Z"
      style="fill:#3c618e" />
    <path
      d="M290.77,0c-25,5-69,10.72-139.68,10.72H27.36c-.14-.1-.33-.19-.51-.33a3.43,3.43,0,0,1-.71-.46,7,7,0,0,1-.79-.56c-.28-.24-.61-.47-.88-.75a9.85,9.85,0,0,1-1.63-1.81,4.41,4.41,0,0,1-.7-1.12c-.05-.05-.09-.05-.09-.09l0,0A41.44,41.44,0,0,1,27.69,0Z"
      style="fill:#529cc6" />
    <path
      d="M27.78,97.79c-1.87.7-4.94,3.44-8.21,13.35-3.72-7.77-7.27-5.16-9.88-.69A190.87,190.87,0,0,1,5.87,87.92c-.09-.79-.18-1.58-.23-2.37C12.58,76.71,21,67.49,25.35,68.28a2.84,2.84,0,0,1,.56.19c0,.28-.09.51-.14.79a65.52,65.52,0,0,0,1.31,25.41l.18.88A18.11,18.11,0,0,0,27.78,97.79Z" />
    <path
      d="M19.57,111.14a130.18,130.18,0,0,0-4.47,19c-1.91-5.77-3.5-11.45-4.8-17-.23-.88-.42-1.76-.61-2.69C12.3,106,15.85,103.37,19.57,111.14Z"
      style="fill:#9ce6fa" />
    <path
      d="M37.19,43.66c-.09.1-.14.19-.23.28a54.5,54.5,0,0,0-7.69,13,56,56,0,0,0-3.36,11.5,2.84,2.84,0,0,0-.56-.19C21,67.49,12.58,76.71,5.64,85.55a188.74,188.74,0,0,1-1-19.32c0-2.28,0-4.42.09-6.56,0-1,.1-2,.14-2.93a4.73,4.73,0,0,0,.47-.51c1-1.12,2.1-2.28,3.22-3.4a68.93,68.93,0,0,1,10.53-9c1.21-.74,2.42-1.49,3.59-2.05A15.77,15.77,0,0,1,24.51,41,15.51,15.51,0,0,1,26,40.5a8.91,8.91,0,0,1,1-.23,9.72,9.72,0,0,1,8.49,1.67,5.2,5.2,0,0,1,.93.84s.09,0,.14.14a.84.84,0,0,1,.14.19l0,0A2.52,2.52,0,0,1,37.19,43.66Z"
      style="fill:#4ab1d5" />
    <path
      d="M41.11,141.3c0,3.49-.1,6.93-.24,10.42a10.39,10.39,0,0,1,0,1.12c0,.93,0,1.82-.14,2.75,0,1.3-.14,2.6-.28,3.91,0,.83-.14,1.67-.24,2.51-.14,1.35-.28,2.7-.46,4-.14,1-.28,2-.42,3a13.63,13.63,0,0,1-.24,1.49c-.18,1.16-.42,2.28-.65,3.4s-.51,2.23-.79,3.3A204.69,204.69,0,0,1,16.5,134.13c-.47-1.35-.93-2.6-1.4-3.91v-.09a130.18,130.18,0,0,1,4.47-19c3.27-9.91,6.34-12.65,8.21-13.35a.7.7,0,0,0,0,.28c1.63,7.16,4.43,16.28,11.37,24,.47.52.94,1,1.4,1.4,0,1.12.14,2.33.19,3.54C41,131.48,41.11,136.37,41.11,141.3Z"
      style="fill:#4ab1d5" />
    <path
      d="M301.12,141.72c-7.73,15.45-24.93,19.91-30.8,21.45a56.74,56.74,0,0,1-24.1,1c-18.55-3.16-30.62-14.89-44.5-28.66s-10.35-14.57-28-32.86C161.59,90.11,156.6,87,152,78.1c-6.57-12.71-6.48-25.83-5.45-34.63a202.86,202.86,0,0,1,54.38-1.53c14.08,1.49,35.24,4,58.54,16.29,9.37,4.93,20.6,11,30.29,23.78a70.78,70.78,0,0,1,12.91,27.64C304.53,118.31,307,130,301.12,141.72Z"
      style="fill:#4ab1d5" />
    <path
      d="M272.26,97.79s-24.88-21.36-41.2-24.06-72.6-19-72.6-19,2.32,10.47,33.59,46.73,59.61,23.83,59.61,23.83,16.87-1.91,25.08-8.71S272.26,97.79,272.26,97.79Zm-26.85,19.58a2.74,2.74,0,0,1,0,.28,0,0,0,0,1,0,0,.32.32,0,0,1,0,.14,3.69,3.69,0,0,1-.15.53l-.09.24a2.55,2.55,0,0,1-.13.29,2.73,2.73,0,0,1-.23.38,3.14,3.14,0,0,1-.56.64h0c-5.76,5-28.34-9.73-28.34-9.73h0l-.66-.5q-.27-.19-.6-.48c-.26-.21-.54-.45-.83-.72l-.65-.6h0c-1.64-1.61-3.27-3.83-2.59-5.77,0-.1.08-.2.13-.3a1.52,1.52,0,0,1,.17-.3,3.79,3.79,0,0,1,.25-.35,2.19,2.19,0,0,1,.21-.23,3.84,3.84,0,0,1,.29-.27s0,0,0,0l.27-.21a4.69,4.69,0,0,1,.7-.45l.32-.17a14,14,0,0,1,3-1,28.43,28.43,0,0,1,3.4-.69l.53-.07a.85.85,0,0,1,.23,0,4,4,0,0,1,.5-.06l.94-.1.38,0c.41,0,.83-.06,1.26-.07l.66,0c.46,0,.94,0,1.43,0l.63,0h.12c.35,0,.7,0,1.06.07l.29,0,.7.08H228l1.24.18c.56.09,1.12.21,1.68.35,0,0,0,0,0,0l.84.22c.35.1.71.21,1.06.33l.61.23a9.66,9.66,0,0,1,1,.39l.69.32c.2.1.4.2.59.31a9.36,9.36,0,0,1,1,.58l.78.51c.45.32.89.66,1.33,1a5.39,5.39,0,0,1,.45.4,6,6,0,0,1,.45.43,14.1,14.1,0,0,1,1.4,1.56l.32.42a14.15,14.15,0,0,1,.8,1.17c.12.18.24.37.35.57l.34.6c.11.2.22.41.32.62s.2.43.31.65.2.45.29.67.2.47.28.71.1.29.16.44a2.42,2.42,0,0,1,.12.35c.08.22.15.45.22.68s.16.52.23.78a13.67,13.67,0,0,1,.59,4.67A2.43,2.43,0,0,1,245.41,117.37Z" />
    <path d="M215.84,110.16s-12.4-8.42,0-11.4c0,0,23.39-6.79,29,13.64S215.84,110.16,215.84,110.16Z"
      style="fill:#9ce6fa" />
    <path
      d="M492.52,304.93c-2.75,20.1-23.07,26.06-25.64,26.71l-36.72.79,1.35,21.92,19,18.52c-.51,6.61-5.69,45.65-58.77,59.66-13.61,3.59-25,1.91-33.93-5-22.88-17.68-23-64-23-64.59s-2.61-61.52,12.77-122l1.16-4.37v-.05A268.72,268.72,0,0,1,361,200.68c18.92-44.26,13.33-93.72,5.26-127.51l0-.33c-.93-3.86-1.91-7.68-3-11.4,23.67,14.24,50.19,24.67,69,31.09,5.82,5.91,11.7,12.14,17.34,18.38C508,175.09,494.24,291.85,492.52,304.93Z"
      style="fill:#906d8d" />
    <path
      d="M80.3,313.72c-2.24,22.62-5.22,36.35-5.22,36.58-.14.42-14.4,44.91-26.15,63.85-3.12,5-6.29,7.54-9.46,7.54h0c-4.52-.09-8.62-5.4-10-7.73-.23-.32-24.74-33.32-22.83-104.38,1.44-54,26.61-96.84,39-114.72a192.6,192.6,0,0,0,36.21,26.81A558.53,558.53,0,0,1,80.3,313.72Z"
      style="fill:#906d8d" />
    <path
      d="M453,107.75c-3.64-4-7.37-8-11.1-11.92h0c-.69-.79-1.44-1.53-2.18-2.32l-4.53-4.61a566.67,566.67,0,0,0-60.4-54c.85-6.05,1.08-10.57.71-13.41C377.06,15.79,422,6.11,464.72,0H435.28l-2.72.48c-1.82.33-3.67.66-5.53,1-2.79.52-5.6,1.06-8.41,1.63l-2.8.57L413,4.27q-3.33.71-6.57,1.44l-1.61.37c-1.6.37-3.18.75-4.72,1.13L397,8c-.93.24-1.84.48-2.74.73-2.33.64-4.56,1.28-6.63,1.94l-2,.65c-1,.33-1.93.66-2.83,1l-.94.36-1.12.44-1.07.44-1,.44c-.5.23-1,.45-1.44.68a25.07,25.07,0,0,0-3,1.7l-.48.34c-.32.23-.6.46-.86.68s-.25.23-.36.35a5.42,5.42,0,0,0-.61.68,4.71,4.71,0,0,0-1,3.59,43,43,0,0,1-.32,9.67h-.05l-1.82-1.38c-3.61-2.71-6.76-5-9.39-6.8l-1.19-.81c-.41-.29-.8-.56-1.18-.81s-1-.69-1.46-1l-.47-.31-1.49-1c-.17-.11-.34-.23-.5-.32-.47-.32-.9-.59-1.26-.81l-.54-.34L352.05,0H347.4l-.24,4.78-.79,15.9,1.21.74s8.85,5.35,23.25,16.38c3.13,2.36,6.66,5.1,10.55,8.24l1.47,1.2.74.6,2.3,1.89c1,.85,2.09,1.73,3.17,2.65h0l1.63,1.38q2.88,2.43,5.94,5.11l2.65,2.33h0l1.8,1.6,1.56,1.39,2.12,1.92,1.88,1.71,1.9,1.74c1.59,1.47,3.2,3,4.84,4.53s3.33,3.15,5,4.79l2,2,2.06,2c.69.67,1.38,1.36,2.08,2-3.51-1.29-7.2-2.69-11-4.21l-3.85-1.55c-1.3-.53-2.61-1.08-3.92-1.63s-2.65-1.12-4-1.7-2.68-1.17-4-1.78-2.71-1.22-4.07-1.85a286.79,286.79,0,0,1-32.45-17.44c-2.76-8.84-4.85-13.9-4.94-14.14l-4.29,1.77h0a1,1,0,0,0,0,.12,2.05,2.05,0,0,0,.08.2,1.12,1.12,0,0,0,.05.13c0,.15.12.32.21.53.21.53.49,1.26.83,2.19.07.19.15.39.22.6.3.8.63,1.73,1,2.77.12.35.25.71.37,1.08,0,0,0,0,0,0q.2.55.39,1.14c.27.8.55,1.64.83,2.53l1,3.21c.84,2.7,1.64,5.46,2.4,8.26s1.5,5.64,2.17,8.5l.09.33c.53,2.2,1,4.47,1.55,6.81.21,1,.42,2,.62,3s.46,2.28.68,3.44c.11.58.22,1.15.32,1.74s.22,1.17.32,1.77c.22,1.18.42,2.38.61,3.59s.37,2.26.54,3.41a2,2,0,0,0,0,.24l.3,2.11q.65,4.53,1.14,9.23c.07.64.14,1.29.2,1.94l.18,1.95c.24,2.61.43,5.26.57,7.93.08,1.34.14,2.68.19,4,.13,3.35.18,6.75.14,10.17q0,3-.15,6.09c0,.67-.05,1.35-.09,2,0,.49,0,1-.08,1.46,0,.88-.1,1.75-.16,2.63h0c-.05.68-.1,1.37-.16,2s-.11,1.37-.18,2.05-.13,1.37-.2,2.06c-.14,1.37-.3,2.75-.48,4.12-.35,2.75-.76,5.51-1.26,8.26-.12.69-.24,1.37-.38,2.06s-.26,1.38-.41,2.07-.28,1.37-.43,2.06c-.3,1.38-.62,2.75-1,4.12-.19.79-.39,1.57-.6,2.36-.09.34-.18.69-.28,1-.2.75-.41,1.51-.63,2.26s-.5,1.71-.75,2.56c-.35,1.13-.71,2.26-1.09,3.38-.27.83-.56,1.65-.85,2.47-.39,1.11-.79,2.2-1.22,3.3-.21.56-.42,1.11-.65,1.67-.15.39-.31.78-.47,1.16-.29.73-.6,1.46-.91,2.19-3,7.17-5.83,14.66-8.34,22.47-.13-2.78-.3-5.72-.5-8.79-.07-.95-.14-1.91-.21-2.89s-.14-1.83-.22-2.77c0-.2,0-.4-.05-.6-.06-.76-.13-1.53-.2-2.31l-.09-1c-.11-1.23-.23-2.48-.36-3.74-.05-.51-.1-1-.16-1.53-.11-1.09-.24-2.2-.36-3.31-.19-1.63-.39-3.28-.61-4.94-.06-.44-.11-.88-.17-1.32s-.15-1-.22-1.57l-.3-2.12c-.1-.7-.21-1.41-.32-2.12-.32-2.13-.67-4.28-1.06-6.43-.12-.72-.25-1.43-.38-2.15-.26-1.43-.54-2.87-.83-4.3-.21-1.07-.44-2.15-.67-3.23-.69-3.22-1.45-6.44-2.28-9.62v0l-.89-3.31c-.19-.74-.42-1.53-.65-2.28l-.28-.88a143.19,143.19,0,0,0-6.06-16.76c-18.88-43-6.95-100.37-6.85-101l-2.3-.49-2.27-.48c0,.06,0,.14-.05.24s0,.24-.09.4a2.21,2.21,0,0,1-.06.32h0a.29.29,0,0,1,0,.09c0,.2-.08.43-.13.69-.12.61-.26,1.38-.41,2.28,0,.23-.08.47-.13.73s-.12.73-.18,1.12-.1.62-.16,1-.1.67-.16,1c-.27,1.74-.55,3.74-.82,6-.09.72-.18,1.48-.27,2.25-.06.52-.12,1-.18,1.58s-.11,1.08-.17,1.64l-.09.91c0,.26-.05.51-.07.78s-.06.57-.08.86-.06.59-.08.88c-.11,1.19-.2,2.4-.29,3.65,0,.63-.09,1.26-.13,1.9s-.08,1.28-.11,1.94-.07,1.31-.1,2-.06,1.35-.09,2,0,1.37-.07,2.06,0,1.4-.05,2.11c-.12,6.19,0,12.83.53,19.69.06.79.12,1.59.19,2.39a166.18,166.18,0,0,0,2.78,19c.16.76.32,1.51.49,2.27q.76,3.41,1.71,6.78c.54,1.95,1.14,3.88,1.78,5.8s1.33,3.84,2.08,5.73c.49,1.26,1,2.51,1.56,3.75h0q.54,1.22,1.05,2.46c.35.84.69,1.69,1,2.55s.66,1.73,1,2.61c.65,1.77,1.26,3.58,1.85,5.44q.75,2.37,1.46,4.84c.14.47.28.95.41,1.44.22.79.44,1.58.65,2.39-19,44.21-39.75,52.36-40,52.45l-.79.47,0,0,0,0-.07.07-.09.08-.43.39-.19.17-.47.41-.56.5c-.31.27-.65.57-1,.89l-.4.34c-.41.36-.87.74-1.36,1.15l-1.6,1.32-1.19,1q-2.75,2.24-6.55,5.17l-1.11.85-.92.71-1.92,1.45c-1.65,1.25-3.43,2.56-5.32,3.95l-2.33,1.7-3.72,2.67-2.63,1.86-2.75,1.93c-1.41,1-2.86,2-4.36,3q-7.49,5.13-16.53,11c-24.65,15.87-46.05,4-57.83-6.19,3.16-.79,6.38-1.44,9.6-1.91a41,41,0,0,1,8.57-.37,22,22,0,0,1,2.77.4c.31.07.62.14.92.23a10.62,10.62,0,0,1,2,.76,9.26,9.26,0,0,1,1.8,1.17l.39.37,0,0a0,0,0,0,1,0,0,8.81,8.81,0,0,0-.7-.78c-.19-.18-.39-.36-.6-.53l0,0a7.79,7.79,0,0,0-.65-.48c-.21-.14-.43-.28-.65-.4s-.44-.25-.67-.36a.88.88,0,0,0-.22-.1,9.7,9.7,0,0,0-.93-.41c-.52-.21-1.05-.39-1.59-.55s-1.08-.3-1.61-.43c-.73-.15-1.48-.28-2.22-.37-.37-.06-.75-.1-1.12-.14s-.74-.08-1.11-.1l-1.12-.08c-1.12-.07-2.23-.1-3.33-.1-.73,0-1.46,0-2.18.05l-2.18.1c-.58,0-1.15.07-1.73.12l-1.71.15-.17,0c-.39,0-.77.07-1.16.12q-.87.09-1.74.21l-2.16.3-1.57.25c-.91.16-1.83.32-2.74.5h-.14c-1.2,0-2.4,0-3.6,0l-2.49-.06c-.84,0-1.67-.05-2.51-.09-1.68-.08-3.36-.18-5-.31s-3.36-.28-5-.46-3.36-.38-5-.61-3.35-.49-5-.77-3.34-.6-5-.93l-2.83-.59-2-.45-2.66-.64c-1-.24-2-.5-2.94-.76l-2.2-.61q-2.13-.6-4.26-1.26l-2.33-.74-2.13-.72c-.5-.16-1-.34-1.51-.52l-1.81-.64-1.82-.68c-1.21-.44-2.41-.91-3.61-1.4l-1.8-.73-1.8-.75q-2.87-1.22-5.71-2.54c-1-.48-2.06-1-3.09-1.48-.87-.42-1.73-.84-2.59-1.28s-1.88-1-2.81-1.45q-2.82-1.47-5.59-3.05l-1.65-.95c-.7-.41-1.39-.81-2.07-1.23-1.21-.72-2.4-1.45-3.55-2.18-1.73-1.08-3.4-2.17-5-3.24s-3.15-2.14-4.63-3.2c-.49-.34-1-.69-1.45-1-1.43-1-2.8-2.05-4.09-3.05l-1.59-1.23c-.72-.56-1.42-1.11-2.1-1.67-.39-.3-.77-.61-1.14-.92l-1.1-.91c-.9-.75-1.75-1.48-2.55-2.17l-.87-.75-.93-.83c-.61-.54-1.17-1.06-1.71-1.55L49.26,192c-.92-.88-1.7-1.64-2.33-2.27l-.31-.31-.28-.28-.81-.81c-.09-.13-2.84-3.44-6.8-9.44-.37-.52-.75-1.07-1.12-1.68A204.94,204.94,0,0,1,16.5,134.13c-.47-1.35-.93-2.61-1.4-3.9v-.1c-.22-.67-.44-1.33-.65-2-.06-.18-.11-.37-.17-.55-.26-.8-.5-1.6-.74-2.4s-.52-1.73-.77-2.59-.41-1.42-.6-2.13l-.06-.22-.06-.22c-.05-.2-.11-.39-.16-.59-.13-.47-.25-.94-.37-1.4l-.36-1.4-.05-.17c-.24-.95-.47-1.9-.7-2.85,0-.15-.07-.31-.11-.46h0c-.12-.44-.23-.88-.32-1.32h0c-.1-.45-.2-.9-.29-1.36A190.87,190.87,0,0,1,5.87,87.92c-.09-.79-.18-1.58-.23-2.37a188.88,188.88,0,0,1-1-19.32c0-1.71,0-3.34.06-5,0-.54,0-1.08,0-1.61,0-1,.09-2,.14-2.93h0q.25-4.77.75-9.19c.22-1.86.46-3.68.74-5.45.09-.57.19-1.14.28-1.7.2-1.13.41-2.23.63-3.32s.46-2.15.71-3.2c.15-.63.31-1.26.47-1.88.24-.91.49-1.82.76-2.7.14-.49.3-1,.45-1.47.31-1,.63-1.92,1-2.85s.68-1.83,1.05-2.72.74-1.76,1.13-2.61.8-1.68,1.22-2.49c.21-.4.42-.8.64-1.19s.31-.56.47-.84.35-.6.53-.9.36-.6.55-.9.29-.46.44-.69c.73-1.12,1.49-2.19,2.28-3.22.28.4.57.77.87,1.12s.6.67.9,1a1.45,1.45,0,0,0,.37.37c.32.32.65.61,1,.88l.4.32.51.37.3.2.28.19.24.16.44.3.21.14a4.09,4.09,0,0,0,.39.22l.31.17.46.26h.05a.17.17,0,0,1,.13.05l125.28.23,7.87,0,6.48-.06,2.78,0,2.12,0q6.72-.11,13.07-.28l2.16-.06q7.5-.21,14.5-.53l4-.18,3.9-.19,3.8-.21c2.52-.14,5-.29,7.4-.45,2.79-.18,5.5-.37,8.15-.56,1.49-.09,3-.2,4.43-.31s2.88-.24,4.28-.38q3-.25,5.81-.52l5.57-.55c.19,0,.37-.05.56-.05,3.77-.42,7.36-.79,10.76-1.21l2.92-.37,1.43-.19c1.74-.22,3.43-.45,5.08-.69l1.78-.25,3.45-.51c4.51-.68,8.64-1.37,12.42-2l5.63-1.07c1.58-.32,3.09-.64,4.53-1l1.41-.31L300,2.75l1.51-.36L303,2l2.71-.68L307,1c1.37-.36,2.61-.7,3.74-1H290.77c-25,5-69,10.72-139.68,10.72H27.36c-.14-.1-.33-.19-.51-.33a3.43,3.43,0,0,1-.71-.46,7,7,0,0,1-.79-.56c-.28-.24-.61-.47-.88-.75a9.85,9.85,0,0,1-1.63-1.81,4.41,4.41,0,0,1-.7-1.12c-.05-.05-.09-.05-.09-.09l0,0A41.44,41.44,0,0,1,27.69,0H20.87c-1,1-1.94,2.1-2.79,3.18l-.42.46C6.9,15.6,1,34.41.09,59.58.05,61.72,0,64,0,66.23a192.37,192.37,0,0,0,1.26,22.2,194.38,194.38,0,0,0,4.52,25.79,210.58,210.58,0,0,0,29.08,67.2c4.15,6.33,7,9.72,7.18,10l.23.23C29.73,209.53,3.44,253.64,2,309.44c-2,72.88,22.74,106,23.62,107.13.23.37,5.69,9.63,13.75,9.77h.19c4.85,0,9.36-3.26,13.38-9.73,12-19.4,26-63.05,26.65-65.1.06-.14,3-13.87,5.32-36.58v-.05c11.56-14.84,32.48-43.41,47.06-73.06a167,167,0,0,0,42.6,4.61l1.17-.14c8.2,7.44,21.58,16.57,38,16.57,8.39,0,17.48-2.38,27.08-8.52,36.59-23.6,53.36-38.48,55.92-40.81,3.32-1.4,21.95-10.7,39.8-49.24,6.2,27.32,7.5,56,7.64,71.48-16.77,62.46-14,126.72-14,127.28,0,2,.05,49.1,24.79,68.18A37.31,37.31,0,0,0,378.48,439a56.12,56.12,0,0,0,14.4-2c61.19-16.1,62.3-64.55,62.3-65.06v-1l-19.1-18.67-1-15.31,32.17-.7.51-.05c.23-.09,26.05-6.47,29.36-30.66C500,283.85,511.63,172.15,453,107.75Zm-372.7,206c-2.24,22.62-5.22,36.35-5.22,36.58-.14.42-14.4,44.9-26.15,63.85-3.12,5-6.28,7.54-9.46,7.54h0c-.21,0-.42,0-.63-.05l-.21,0-.42-.08a7.86,7.86,0,0,1-1.22-.39c-.27-.11-.53-.24-.79-.37s-.32-.17-.48-.27-.32-.19-.48-.3a9.55,9.55,0,0,1-.91-.66l-.7-.58-.42-.38c-.19-.18-.38-.36-.55-.54-.42-.42-.8-.85-1.16-1.28s-.63-.79-.91-1.16-.52-.73-.73-1.05c-.06-.11-.13-.21-.19-.31l-.17-.28h0l0,0-.06-.08-.08-.12a1.36,1.36,0,0,0-.12-.17l-.19-.28L28.8,413l-.65-1-.28-.44-.62-1-.34-.58-.74-1.29c-.25-.46-.53-.95-.81-1.47-.42-.79-.86-1.65-1.33-2.57-.31-.62-.62-1.26-.94-1.93-.17-.34-.33-.69-.5-1.05l-.42-.92-.42-.95c-.05-.12-.1-.23-.16-.35-.38-.87-.77-1.77-1.16-2.72-.14-.31-.27-.63-.4-1-.49-1.23-1-2.52-1.51-3.88l-.62-1.7,0-.1-.33-.92-.33-.95c-.41-1.19-.82-2.42-1.22-3.7-.13-.39-.25-.78-.38-1.18q-.81-2.65-1.61-5.56c-.2-.7-.39-1.42-.58-2.14l-.8-3.2q-.21-.88-.42-1.8c-.19-.83-.38-1.68-.57-2.54L11.39,367c-.06-.27-.11-.54-.17-.81,0-.11-.05-.21-.07-.32q-.28-1.41-.57-2.88c-.27-1.46-.54-3-.8-4.49-.08-.51-.17-1-.25-1.54-.17-1-.33-2.08-.49-3.14-.09-.61-.17-1.23-.26-1.86-.33-2.44-.64-5-.91-7.55-.07-.67-.14-1.34-.2-2l-.18-2,0-.37c-.07-.76-.14-1.52-.19-2.29s-.12-1.56-.17-2.35c-.07-1.05-.14-2.11-.2-3.19s-.1-2-.14-3c0-.58,0-1.16-.06-1.75a1.48,1.48,0,0,1,0-.21c0-.42,0-.84,0-1.26,0-.08,0-.17,0-.25,0-.7,0-1.4-.06-2.12v-.14c0-1,0-1.95,0-2.93q0-3.37,0-6.88v-.2c0-1.25,0-2.52.08-3.8,1.44-54,26.61-96.84,39-114.71.93.89,2,1.9,3.26,3l1.56,1.39.84.73h0L53,201.52c.93.79,1.91,1.6,2.95,2.44l1.05.84,1.09.86,1.12.88c.76.59,1.55,1.19,2.35,1.79s1.63,1.22,2.48,1.84a198.72,198.72,0,0,0,17.73,11.5A558.5,558.5,0,0,1,80.3,313.72Zm44.6-68.3c-.46.89-.93,1.78-1.4,2.66-1.21,2.27-2.44,4.52-3.71,6.75-.43.78-.87,1.55-1.32,2.32s-.88,1.54-1.34,2.3c-1.33,2.3-2.7,4.57-4.07,6.81-.45.75-.91,1.49-1.38,2.23s-.91,1.47-1.38,2.2-.91,1.46-1.38,2.18c-.92,1.45-1.84,2.87-2.76,4.28s-1.84,2.79-2.75,4.16c-.46.69-.91,1.37-1.37,2s-.9,1.34-1.36,2q-.84,1.25-1.68,2.46l-1,1.44c-2.22,3.18-4.38,6.2-6.44,9l-.77,1.05c-.47.66-1,1.3-1.41,1.93l-.95,1.27c-.54.74-1.08,1.45-1.61,2.16l-1.11,1.46h0c.1-1.28.21-2.6.32-3.95,0-.45.06-.91.1-1.37,0-.61.09-1.22.13-1.85.15-2,.28-4.13.41-6.3.09-1.45.17-2.92.25-4.43s.14-2.87.21-4.34l0-.68c0-1.31.11-2.64.15-4,0-.81.06-1.63.08-2.45s.05-1.65.07-2.49c.07-2.51.13-5.08.16-7.71q0-1.31,0-2.64c0-.89,0-1.78,0-2.68,0-6.16,0-12.6-.23-19.28-.07-2.14-.14-4.3-.23-6.5s-.2-4.4-.31-6.64h0c0-.75-.08-1.49-.13-2.25s-.08-1.5-.13-2.26h0l1.23.66,1.23.66,2.49,1.3q2.49,1.26,5,2.45h0c.73.35,1.47.69,2.2,1l2.21,1,2.21,1,2.23.93,2.22.89,1.12.44,1.12.43c1.49.56,3,1.11,4.48,1.63,1.3.46,2.61.89,3.91,1.31l1.93.61,1.16.35.78.24,1.69.49.22.06,1.16.33,2.09.56h0Q126.15,243,124.9,245.42ZM495,271h0c0,1.3-.08,2.57-.12,3.8,0,.63-.05,1.24-.07,1.85-.15,3.63-.34,7-.55,10.08-.07,1-.14,2-.21,3-.58,7.62-1.23,13-1.53,15.22-.06.4-.12.79-.19,1.18l-.12.66c-.06.3-.12.6-.19.89s-.1.44-.16.66-.11.43-.17.64c-.12.43-.24.85-.38,1.26s-.19.57-.29.85-.19.51-.29.75-.21.52-.32.78-.22.51-.33.75l0,.09c-.1.22-.21.44-.32.65-.24.49-.49,1-.76,1.41a6.71,6.71,0,0,1-.4.68c-.26.45-.55.89-.85,1.31a7.07,7.07,0,0,1-.44.63c-.22.32-.45.62-.7.92l0,0c-.1.14-.22.28-.33.41l-.34.41c-.24.29-.49.58-.74.85-.41.45-.83.88-1.25,1.29l-.52.5c-.26.24-.52.48-.79.71l-.79.68c-.53.44-1.07.86-1.61,1.26l-.83.59c-.26.19-.53.37-.79.54-.43.29-.86.56-1.29.82s-.79.47-1.18.68a1,1,0,0,1-.17.1c-.34.19-.68.38-1,.55s-.55.29-.82.41l-.33.17-.64.3-.62.28-1,.44-.6.24-.51.2-1.1.4-.35.12-.93.3-.18.06-.23.07-.15,0-.24.06-.28.08-36.73.79,1.35,21.92,19,18.52c0,.15,0,.33,0,.52s0,.4-.06.62-.08.62-.12,1-.12.83-.19,1.29c0,.16-.05.32-.08.48-.15.86-.33,1.83-.57,2.87-.12.53-.25,1.07-.39,1.63q-.33,1.28-.75,2.67c-.19.61-.39,1.25-.61,1.89-.14.41-.29.82-.44,1.24s-.31.84-.48,1.27-.29.74-.45,1.11c-.05.15-.12.3-.18.45-.33.79-.69,1.6-1.07,2.42-.22.45-.44.91-.67,1.37-.35.7-.72,1.41-1.1,2.12l-.59,1c-.2.36-.41.71-.62,1.07s-.53.88-.8,1.32l0,0-.11.17c-.28.46-.58.91-.89,1.36s-.65,1-1,1.45-.55.78-.85,1.17-.58.78-.89,1.17-.61.77-.93,1.16-.54.66-.82,1l-.85,1c-.29.33-.59.65-.89,1s-.61.65-.92,1l-.95,1c-1.08,1.09-2.22,2.17-3.44,3.23l-1.21,1-.25.21c-.37.32-.75.62-1.14.93s-.93.74-1.41,1.1q-1.31,1-2.7,1.95l-.85.58-.09.06-.11.07c-.44.3-.9.6-1.36.89-.68.44-1.38.87-2.1,1.3l-1,.58c-.56.32-1.12.64-1.69.95s-1.15.62-1.74.93-1.1.57-1.67.84-1.27.62-1.93.92-1.28.59-1.94.88l-.08,0-.38.16c-1.17.52-2.38,1-3.62,1.48l-.14.05c-.71.28-1.44.55-2.18.81s-1.46.52-2.21.77l-.06,0c-.75.25-1.51.5-2.29.73s-1.58.49-2.39.71-1.62.46-2.45.68c-13.61,3.59-25,1.91-33.93-5l-.81-.65-.39-.33c-.34-.28-.67-.57-1-.86s-.46-.42-.68-.64c-.49-.46-1-.94-1.42-1.43l-.46-.49-.06-.07c-.19-.21-.37-.41-.55-.63-.92-1.05-1.79-2.16-2.61-3.31-.4-.55-.79-1.12-1.17-1.69-.05-.07-.09-.15-.14-.23q-.53-.8-1-1.62s0,0,0,0h0c-.18-.31-.36-.63-.55-.94l0-.07c-.44-.77-.86-1.55-1.27-2.34-.15-.29-.3-.58-.44-.87-.5-1-1-2-1.41-3-.18-.4-.35-.8-.52-1.21v0l0-.05-.36-.88c-.18-.44-.35-.88-.52-1.32-.89-2.31-1.68-4.66-2.36-7q-.56-1.87-1-3.72c-.12-.45-.23-.89-.33-1.33s-.17-.68-.25-1-.1-.41-.14-.61-.15-.67-.22-1-.19-.87-.28-1.31-.18-.86-.26-1.29-.17-.86-.25-1.28-.16-.85-.23-1.27c-.16-.84-.29-1.66-.42-2.47-.08-.49-.15-1-.22-1.45-.17-1.11-.32-2.19-.44-3.23,0-.31-.08-.62-.12-.92-.09-.79-.18-1.56-.25-2.3s-.15-1.38-.2-2c0-.31-.06-.6-.08-.89,0,0,0-.07,0-.1l-.06-.8c0-.3-.05-.58-.06-.86s-.05-.55-.06-.82,0-.52-.05-.77-.05-.69-.06-1c0-.14,0-.28,0-.41l0-.64c0-.61,0-1.14-.06-1.6,0-.3,0-.57,0-.8,0-.56,0-.89,0-.93s0-.2,0-.49c0-.1,0-.21,0-.34s0-.42,0-.67,0-.54,0-.85,0-.43,0-.67c0-.83,0-1.82-.05-3,0-.65,0-1.35,0-2.1,0-2.38,0-5.25,0-8.53,0-.67,0-1.35,0-2.05s0-1.61.05-2.45c0-.42,0-.85,0-1.28,0-1.13.05-2.29.09-3.49,0-.63,0-1.27.07-1.92,0-.47,0-.94.05-1.42.07-1.87.15-3.82.25-5.83a.76.76,0,0,1,0-.15c.05-1,.1-2.08.16-3.14s.12-2.14.19-3.24l.06-1q.16-2.79.39-5.72a.17.17,0,0,1,0-.07c.08-1.15.17-2.32.28-3.5.08-1,.16-2,.25-3,0-.2,0-.41.05-.61.09-1,.18-2,.28-3q.31-3.36.69-6.83c.12-1.08.24-2.17.37-3.27,0-.3.06-.6.1-.91,0-.12,0-.25.05-.37.06-.56.13-1.11.2-1.68,1-8.35,2.3-17.08,3.93-26,.16-.87.32-1.74.49-2.61.09-.49.18-1,.28-1.47q.5-2.58,1-5.18c.27-1.28.54-2.55.82-3.83q.93-4.26,2-8.54c.23-1,.47-1.91.71-2.86l1.16-4.37v-.05A269.21,269.21,0,0,1,361,200.68c18.92-44.26,13.32-93.72,5.26-127.51l-.05-.33c-.47-1.93-.94-3.85-1.43-5.75s-1-3.79-1.54-5.65c23.67,14.24,50.19,24.67,69,31.09q3.29,3.33,6.56,6.77c2.91,3,5.81,6.16,8.65,9.27l2.12,2.34.8.88.38.43.06.07.1.12c.37.41.72.82,1.08,1.24s.8.92,1.18,1.39.78.94,1.16,1.41.63.77.93,1.16a2.11,2.11,0,0,1,.19.23.18.18,0,0,1,.05.07c.37.46.73.93,1.09,1.4s.74,1,1.1,1.45l1.08,1.46c.71,1,1.41,2,2.09,3,.34.5.68,1,1,1.49s.66,1,1,1.5l.05.07c.65,1,1.29,2,1.91,3l.8,1.3,1.07,1.81c.62,1.06,1.22,2.13,1.82,3.21l.1.18a.43.43,0,0,0,0,.07c.63,1.15,1.25,2.3,1.85,3.46.81,1.56,1.59,3.12,2.35,4.71.38.79.75,1.58,1.12,2.38q1.11,2.38,2.13,4.8h0q1,2.4,2,4.85c.64,1.63,1.26,3.26,1.86,4.91h0q.9,2.46,1.72,4.94h0q.84,2.47,1.6,5c.38,1.25.75,2.5,1.11,3.76s.71,2.5,1,3.75h0q.69,2.51,1.3,5h0c.41,1.67.81,3.34,1.18,5,.18.79.35,1.57.52,2.36s.33,1.57.49,2.35.32,1.57.47,2.35.31,1.57.45,2.35c.31,1.64.6,3.28.88,4.91.12.7.23,1.41.34,2.11s.25,1.55.37,2.32.23,1.55.34,2.32.26,1.79.38,2.68a1,1,0,0,1,0,.17c.18,1.35.36,2.71.52,4.05q.42,3.42.75,6.8c.11,1,.21,2.08.3,3.11.11,1.19.21,2.39.3,3.57,0,.42.07.85.1,1.27,0,.17,0,.33,0,.5.17,2.33.32,4.64.44,6.91,0,.72.08,1.42.11,2.13s.07,1.42.1,2.13.06,1.38.08,2.06.05,1.37.07,2.06c0,.46,0,.91,0,1.36C495.2,257.73,495.17,264.69,495,271Z" />
    <path
      d="M139.25,86.34C137.76,99.46,131,107.93,127.79,112a56.88,56.88,0,0,1-20.32,16c-11.84,5.31-22.37,4.79-29.31,4.47-11.42-.51-22.23-1-32-8.75a37.81,37.81,0,0,1-4.38-4c-6.34-7-9-15.64-10.53-22.38-.24-.84-.38-1.63-.56-2.42l-.19-.93a62.27,62.27,0,0,1-1.26-24.11,52.72,52.72,0,0,1,3.26-11.54,51.9,51.9,0,0,1,7.23-12.2A62.73,62.73,0,0,1,53,33.71c5.08-3.59,12.81-9,23.67-10.24,1.4-.14,2.8-.24,4.2-.24a42.23,42.23,0,0,1,13.28,2.28A108.62,108.62,0,0,0,96.1,51.44c.51,2.46,1.16,4.84,1.86,7.07a41,41,0,0,0,7.23,13.73,19.89,19.89,0,0,0,1.86,2,21.1,21.1,0,0,0,6.29,4.42,28.71,28.71,0,0,0,11,2.47,17.76,17.76,0,0,0,9.23-2.42,17.13,17.13,0,0,0,1.49-1c.47-.37.93-.79,1.4-1.21a18,18,0,0,0,1.26-1.35,15.59,15.59,0,0,0,1.16-1.49A44.47,44.47,0,0,1,139.25,86.34Z"
      style="fill:#13264c" />
    <path
      d="M143,78.66c0-.44,0-.88-.09-1.3s-.07-.88-.12-1.3-.13-1.09-.2-1.61-.16-1-.24-1.53c0-.25-.09-.49-.13-.73-.08-.48-.18-.94-.28-1.38h0c-.09-.44-.19-.86-.3-1.27,0-.21-.09-.41-.14-.6v0l-.1-.28c0-.1,0-.19-.09-.33l-.56-2.09a2.29,2.29,0,0,0-.09-.28c-.28-.84-.52-1.63-.8-2.33-.13-.33-.24-.64-.35-.94s-.22-.58-.32-.85l-.21-.53h0c-.25-.61-.51-1.22-.78-1.81s-.53-1.16-.81-1.72h0c-.28-.56-.56-1.12-.86-1.66s-.49-.89-.74-1.32c-.74-1.29-1.52-2.5-2.32-3.65l-.57-.82c-.37-.51-.74-1-1.11-1.48s-.78-1-1.18-1.46-.79-.94-1.18-1.38-.67-.76-1-1.12L127,43.4l-.68-.67c-1-1-2-1.9-3-2.74-1.59-1.4-3.08-2.61-4.38-3.67l-1.91-1.52-1.58-1.22c-.27-.22-.55-.43-.84-.64l-.86-.65c-2-1.44-4.14-2.95-6.53-4.4l-1.09-.64-.94-.53-.34-.2-1-.53-1.17-.6c-.39-.2-.79-.39-1.2-.58l-.93-.43-1-.44-.2-.08c-.54-.24-1.09-.46-1.64-.67l-.61-.28a3.69,3.69,0,0,0-.6-.23c-.75-.28-1.49-.56-2.25-.79l-.83-.26c-.56-.16-1.12-.32-1.68-.46-.27-.08-.55-.15-.83-.21-.53-.13-1-.24-1.58-.35l-1.27-.22c-.54-.09-1.07-.17-1.61-.24l-.26,0c-.57-.07-1.15-.13-1.72-.18s-1.2-.09-1.79-.12-1.12,0-1.67,0l-1.3,0c-.58,0-1.15,0-1.72.08s-1.15.09-1.72.16c-.83.09-1.64.2-2.44.33q-.6.09-1.17.21c-.39.07-.77.15-1.15.24l-1.11.25h0c-.74.19-1.46.39-2.16.61l-1,.34c-1,.35-2,.73-3,1.13l-.95.41-.93.42-1.42.69c-.42.21-.84.43-1.24.65-2,1.09-3.86,2.25-5.53,3.36-.84.56-1.63,1.11-2.39,1.64l-1.1.78L49.45,32,48,33.06l-.77.61c-.53.42-1.09.87-1.66,1.36l-.87.75c-.3.26-.6.52-.9.8l-.92.85-.94.91c-.79.78-1.58,1.6-2.38,2.49l-.6.68c-.6.68-1.2,1.4-1.8,2.15-.09.09-.14.19-.23.28-.78,1-1.53,2-2.24,3-.35.52-.7,1-1,1.57q-1,1.59-1.92,3.27c-.3.56-.6,1.13-.88,1.7s-.55,1.11-.81,1.68c0,0,0,0,0,0s0,0,0,0c-.27.58-.53,1.16-.78,1.75s-.38.93-.56,1.4c-.36.94-.69,1.89-1,2.84,0,.1-.06.2-.1.3a.19.19,0,0,1,0,.07c-.11.35-.22.71-.32,1.07s-.21.72-.3,1.08-.18.68-.27,1c0,.06,0,.12,0,.17l-.24,1L26.19,67c-.1.49-.19,1-.28,1.46-.05.28-.1.51-.14.79q-.19,1.21-.33,2.4c-.09.79-.16,1.57-.22,2.33,0,.4-.06.8-.07,1.2,0,.79-.07,1.57-.08,2.34s0,1.51,0,2.24c0,.88.06,1.73.11,2.56q0,.63.09,1.23c.07.81.15,1.59.23,2.33.13,1.12.29,2.18.45,3.17.11.66.22,1.28.33,1.87.28,1.47.57,2.73.8,3.74l.19.88c.05.28.11.56.16.84s.12.56.19.84.1.37.16.56a.66.66,0,0,0,0,.14.15.15,0,0,0,0,.09.17.17,0,0,0,0,0c.13.56.26,1.13.4,1.71s.3,1.18.46,1.78c.32,1.2.69,2.44,1.1,3.7.16.5.34,1,.52,1.52s.49,1.32.75,2l.14.33c.32.76.65,1.53,1,2.31.24.51.49,1,.76,1.55s.4.78.62,1.16.32.59.5.88.41.7.62,1l.49.77c.32.51.67,1,1,1.52s.73,1,1.11,1.49l.6.74.54.66.71.81a18.28,18.28,0,0,0,1.4,1.39q.44.43.87.84c.29.27.57.53.85.77s.57.5.85.73.56.47.84.69c.66.53,1.33,1,2,1.49.34.24.67.46,1,.68l1,.64,1,.6c.68.39,1.37.75,2.06,1.08s1.4.64,2.1.93l1.05.42c.7.27,1.41.52,2.11.74s1.42.43,2.14.62,1.24.32,1.86.45c.45.11.91.2,1.36.29,1.07.21,2.15.39,3.23.55q.81.12,1.62.21c1.09.13,2.17.23,3.26.32,2.17.17,4.34.28,6.49.39l1.62.07,1.5.08c1.09.06,2.22.11,3.41.14h1.57l1.85,0,1.76-.07c.54,0,1.09-.06,1.65-.1l.6-.05,1.44-.14.93-.11,1.3-.17c1.57-.24,3.19-.54,4.86-.94.54-.12,1.07-.26,1.62-.41,1.08-.29,2.19-.62,3.31-1l1.27-.45c1.27-.46,2.56-1,3.87-1.57l.45-.2,1-.46c.48-.23,1-.49,1.52-.78l.54-.29c1.11-.6,2.31-1.3,3.58-2.12s2.61-1.75,4-2.8c.25-.19.5-.38.74-.58s.27-.21.41-.33l.56-.44.12-.1.82-.69c.66-.56,1.32-1.16,2-1.78.34-.31.67-.63,1-1l.41-.4c.48-.48,1-1,1.44-1.48l.36-.4c.25-.26.48-.52.72-.79.68-.76,1.35-1.55,2-2.38a61.07,61.07,0,0,0,6.66-9.91,48.3,48.3,0,0,0,5.55-17.55A49.17,49.17,0,0,0,143,78.66Zm-3.7,7.68c-.05.44-.11.88-.17,1.31s-.09.58-.14.87c-.07.47-.15.93-.24,1.39s-.23,1.08-.35,1.61l0,.13c-.13.54-.27,1.06-.41,1.58-.2.71-.41,1.41-.63,2.08-.17.51-.34,1-.52,1.49s-.37,1-.56,1.43c-.25.62-.51,1.23-.78,1.81-.54,1.18-1.11,2.28-1.68,3.32-.29.51-.58,1-.87,1.49s-.58,1-.87,1.39c-.57.9-1.14,1.72-1.68,2.47-.27.38-.54.74-.8,1.08l-.47.62L127.79,112a56.88,56.88,0,0,1-20.32,16q-.81.36-1.62.69l-1.07.42c-.31.13-.62.24-.93.35l-1.18.41c-.36.12-.72.24-1.07.34l-.93.28c-.65.19-1.29.36-1.92.52l-.91.22-1,.21-.66.13-1.06.2-1,.17-.84.13q-1.14.16-2.25.27l-1.7.14c-.79.06-1.56.1-2.32.13-1.5.05-2.93.05-4.28,0l-1.61,0-1.15,0-1.1,0-.71,0-2.1-.09h0L74,132.25l-1.18-.06-2-.13-.16,0c-.64,0-1.27-.1-1.9-.16l-.19,0-1.5-.16-.46,0c-.88-.11-1.75-.24-2.62-.38s-1.87-.33-2.79-.54h0l-.9-.21-.75-.19L58.32,130l-.58-.18-.18-.05-1-.33c-.52-.18-1-.38-1.57-.58-.32-.13-.65-.26-1-.41s-.49-.21-.74-.33c-.74-.33-1.47-.71-2.21-1.11-.37-.2-.74-.41-1.11-.64s-.83-.5-1.24-.78-.9-.6-1.35-.94c-.2-.14-.4-.28-.59-.43l-.65-.5-.54-.43c-.36-.29-.72-.59-1.08-.91l-.54-.49c-.36-.34-.72-.69-1.09-1.06s-.75-.75-1.13-1.16-.57-.65-.85-1l0-.05c-.23-.26-.44-.54-.66-.82s-.49-.62-.72-.94-.52-.71-.77-1.08c0,0,0,0,0,0l-.54-.83q-.21-.31-.39-.63c-.49-.76-.93-1.54-1.35-2.32-.25-.48-.5-1-.74-1.45-.12-.24-.23-.48-.34-.72-.22-.47-.43-.93-.62-1.39l0-.11q-.3-.7-.57-1.41t-.54-1.44c-.17-.48-.33-1-.49-1.43s-.31-.94-.44-1.41-.28-.93-.4-1.38-.26-.91-.37-1.36c-.24-.89-.45-1.77-.64-2.61-.12-.42-.21-.83-.29-1.23s-.17-.79-.26-1.19l-.19-.93a62.27,62.27,0,0,1-1.26-24.11A52.77,52.77,0,0,1,30.52,64c.14-.48.28-1,.43-1.44.29-1,.62-1.9,1-2.84.17-.47.36-.93.55-1.4h0c.23-.55.48-1.09.73-1.63h0c.5-1.08,1-2.14,1.6-3.18a50.83,50.83,0,0,1,3.82-6c.35-.47.7-.94,1.07-1.4s.61-.76.92-1.13c.16-.2.32-.39.49-.58s.53-.61.79-.91.63-.69.94-1c.48-.51,1-1,1.43-1.47l.9-.87c.59-.56,1.19-1.09,1.77-1.6l.64-.55.63-.53.62-.51.61-.49.78-.61,1.48-1.12,1.34-1c5.08-3.58,12.82-9,23.67-10.24.7-.07,1.4-.13,2.1-.17s1.39-.06,2.1-.06a38.9,38.9,0,0,1,6.6.58c.55.1,1.11.2,1.66.32,1.11.24,2.22.53,3.34.85l.83.26.42.13.42.14c0,.75,0,1.49-.05,2.23,0,1.37,0,2.71,0,4,0,.83,0,1.66,0,2.47,0,.24,0,.48,0,.72,0,.7.06,1.39.1,2.07,0,.12,0,.25,0,.37,0,.46,0,.92.08,1.37.06.91.14,1.8.22,2.68,0,.44.09.88.13,1.31.08.7.16,1.38.25,2.06.13,1,.28,2,.44,3,.12.74.25,1.46.39,2.18.09.47.18.94.28,1.4.51,2.47,1.17,4.84,1.86,7.08a41,41,0,0,0,7.23,13.73,19.89,19.89,0,0,0,1.86,2,21.1,21.1,0,0,0,6.29,4.42,28.66,28.66,0,0,0,11,2.47,16.49,16.49,0,0,0,10.72-3.45c.47-.37.93-.79,1.4-1.21.32-.31.65-.65,1-1,.1-.12.2-.23.29-.35a15.68,15.68,0,0,0,1.17-1.49c.05.28.09.56.14.85q.14.87.24,1.8c.07.61.13,1.25.17,1.91,0,.5.06,1,.08,1.53s0,1,0,1.54A43,43,0,0,1,139.25,86.34Z" />
    <path
      d="M118.46,152.83a47.65,47.65,0,0,1-10.87,7.26,39.41,39.41,0,0,1-12.62,4,26.08,26.08,0,0,1-13.25-1.64,23.31,23.31,0,0,1-9.86-8.63c3.2,2.95,6.51,5.67,10.51,7a28.73,28.73,0,0,0,12.3,1,49.75,49.75,0,0,0,12.19-3.3A89.77,89.77,0,0,0,118.46,152.83Z" />
    <path
      d="M58.85,143.53a77.82,77.82,0,0,0,20.54,4.17,66.19,66.19,0,0,0,20.68-1.64,63.8,63.8,0,0,0,19.26-7.62c6.14-3.34,11.47-7.93,16.81-12.56-2.4,2.57-4.73,5.27-7.36,7.65-2.78,2.2-5.4,4.67-8.51,6.44a61.27,61.27,0,0,1-19.68,8.36A63.23,63.23,0,0,1,58.85,143.53Z" />
    <path
      d="M192.06,151.47A170.38,170.38,0,0,0,207.19,167a96.17,96.17,0,0,0,8.44,6.6,70.33,70.33,0,0,0,9.44,5.27c-7.28-1.28-13.89-5.31-19.42-10.13a63.13,63.13,0,0,1-7.58-8A52.73,52.73,0,0,1,192.06,151.47Z" />
    <path
      d="M176.46,117.93a162.66,162.66,0,0,0,12,14.91,177.57,177.57,0,0,0,13.39,13.63c9.39,8.53,19.73,16.25,31.43,21.07a65.52,65.52,0,0,0,18.13,5,53.4,53.4,0,0,0,18.72-1.24,56.91,56.91,0,0,0,17.39-7.34c5.54-3.14,10.42-7.31,15.2-11.57C294,161.54,283.31,169.71,270.6,173c-12.6,3.65-26.31,1.72-38.2-3.32s-22.49-13-31.74-21.91A159.24,159.24,0,0,1,176.46,117.93Z" />
    <path
      d="M160.8,28.68a46.78,46.78,0,0,1,11.53-4.57,53.71,53.71,0,0,1,12.38-1.72,44.6,44.6,0,0,1,12.44,1.41,39.09,39.09,0,0,1,11.42,4.88,69.23,69.23,0,0,0-11.8-3.13,62.06,62.06,0,0,0-12-.83A88.2,88.2,0,0,0,160.8,28.68Z" />
    <path
      d="M19.4,26.1a12.11,12.11,0,0,1,3.89-2.67,13.26,13.26,0,0,1,4.63-1.25,10.58,10.58,0,0,1,4.87.73,7.64,7.64,0,0,1,3.6,3.19,16.23,16.23,0,0,0-4.13-1.48,19.2,19.2,0,0,0-4.15-.13A66.19,66.19,0,0,0,19.4,26.1Z" />
  </g>
</svg>
